<svg id="레이어_1" data-name="레이어 1" xmlns="http://www.w3.org/2000/svg" viewBox="0 0 117.9 27"><defs><style>.cls-1{fill:#023f97;}.cls-2{fill:#0062df;}</style></defs><path class="cls-1" d="M79.15,8.1H70L72.67,0h-8.1L55.8,27H72.66a9,9,0,0,0,8.56-6.22L83.43,14A4.5,4.5,0,0,0,79.15,8.1ZM75.4,13.78l-1.83,5.61a4.5,4.5,0,0,1-4.28,3.11H65.36l3.22-9.9h6A.91.91,0,0,1,75.4,13.78Z"/><polygon class="cls-1" points="93.37 0 91.62 5.4 99.72 5.4 101.47 0 93.37 0"/><polygon class="cls-1" points="84.6 27 92.7 27 98.84 8.1 90.74 8.1 84.6 27"/><path class="cls-1" d="M111,12.6h5.45l1.46-4.5h-5.45L115.08,0H107l-6.86,21.11A4.51,4.51,0,0,0,104.41,27h9l1.46-4.5H109a.9.9,0,0,1-.85-1.17Z"/><path class="cls-2" d="M23.13,9.42,32,0H22.5L15.19,22.5H9.11a.9.9,0,0,1-.85-1.18L15.18,0H7.08L.22,21.11A4.5,4.5,0,0,0,4.5,27H21.83L28,8.1Z"/><path class="cls-2" d="M53.1,0H34.49l2.74,9.42-4-1.32L27.12,27h8.1l2.92-9H46.9a9,9,0,0,0,8.56-6.22l1.92-5.9A4.5,4.5,0,0,0,53.1,0ZM49.35,5.67l-1.54,4.72a4.5,4.5,0,0,1-4.28,3.11H39.6l2.93-9h6A.9.9,0,0,1,49.35,5.67Z"/></svg>