<svg xmlns="http://www.w3.org/2000/svg" xmlns:xlink="http://www.w3.org/1999/xlink" viewBox="0 0 669.45 121.19"><defs><style>.cls-1{fill:url(#New_Gradient_Swatch_1_사본);}.cls-2{fill:#7c7c7c;}.cls-3{fill:url(#New_Gradient_Swatch_1_사본-2);}.cls-4{fill:url(#New_Gradient_Swatch_1_사본-3);}.cls-5{fill:url(#New_Gradient_Swatch_1_사본-4);}.cls-6{fill:url(#New_Gradient_Swatch_1_사본-5);}.cls-7{fill:url(#New_Gradient_Swatch_1_사본-6);}</style><linearGradient id="New_Gradient_Swatch_1_사본" x1="-18.21" y1="-24.15" x2="112.14" y2="101.12" gradientUnits="userSpaceOnUse"><stop offset="0" stop-color="#2ad8ff"/><stop offset="1" stop-color="#ff7ddb"/></linearGradient><linearGradient id="New_Gradient_Swatch_1_사본-2" x1="158.53" y1="61.47" x2="234.91" y2="61.47" xlink:href="#New_Gradient_Swatch_1_사본"/><linearGradient id="New_Gradient_Swatch_1_사본-3" x1="242.79" y1="61.47" x2="290.04" y2="61.47" xlink:href="#New_Gradient_Swatch_1_사본"/><linearGradient id="New_Gradient_Swatch_1_사본-4" x1="298" y1="61.47" x2="339.71" y2="61.47" xlink:href="#New_Gradient_Swatch_1_사본"/><linearGradient id="New_Gradient_Swatch_1_사본-5" x1="347.66" y1="59.84" x2="418.64" y2="59.84" xlink:href="#New_Gradient_Swatch_1_사본"/><linearGradient id="New_Gradient_Swatch_1_사본-6" x1="178.22" y1="86.2" x2="234.91" y2="86.2" xlink:href="#New_Gradient_Swatch_1_사본"/></defs><g id="레이어_2" data-name="레이어 2"><g id="Layer_1" data-name="Layer 1"><g id="Shape"><path id="Shape-2" data-name="Shape" class="cls-1" d="M105.29.59,105,0H35L0,60.59l35,60.6h70l35-60.6Zm14.3,29.47L68.33,118.83H37.7L104.27,3.53ZM70,58.24,55.32,32.88H84.61ZM86,30.53H54L37.7,2.35h64.53Zm-34.71,0H20.07l15.59-27Zm1.36,2.35,16,27.71L52.34,88.78,20.07,32.88ZM2.71,60.59,18,34.06,51,91.13,35.66,117.66Zm100.88,58.24H71.05L121,32.41l16.27,28.18Z"/></g><path class="cls-2" d="M484.08,73.84A19.28,19.28,0,0,1,481.63,83a20.57,20.57,0,0,1-7.25,7.64,20.83,20.83,0,0,1-11.4,3H426.6V78.74H463a4.3,4.3,0,0,0,3.27-1.46,5,5,0,0,0,0-6.85,4.27,4.27,0,0,0-3.23-1.5H426.6V54.09H463a4.21,4.21,0,0,0,3.27-1.53A5.16,5.16,0,0,0,467.6,49a4.8,4.8,0,0,0-1.35-3.37A4.27,4.27,0,0,0,463,44.21H426.6V29.29H463a20.9,20.9,0,0,1,11.4,3,20.25,20.25,0,0,1,7.25,7.6A19.28,19.28,0,0,1,484.08,49a18.91,18.91,0,0,1-4.55,12.43A18.33,18.33,0,0,1,484.08,73.84Z"/><path class="cls-2" d="M512.64,93.66H492l26-32.11L492,29.29h20.6l15.77,19.54,15.78-19.54h20.39Z"/><path class="cls-2" d="M614.24,29.29V93.66H597.76V44.21H572.54V29.29Z"/><path class="cls-2" d="M669.45,44.21H622.2V29.29h47.25Zm0,24.72H622.2V54.09h47.25Zm0,24.73H622.2V78.74h47.25Z"/><path class="cls-3" d="M179.13,93.66h-20.6L198.6,44.28h-37v-15h73.33Z"/><path class="cls-4" d="M290,44.21H242.79V29.29H290Zm0,24.72H242.79V54.09H290Zm0,24.73H242.79V78.74H290Z"/><path class="cls-5" d="M339.71,29.29V93.66H323.22V44.21H298V29.29Z"/><path class="cls-6" d="M347.66,93.66l35-67.64,36,67.64H400.38L383.19,60.48,365.85,93.66Z"/><rect class="cls-7" x="178.22" y="78.74" width="56.68" height="14.92"/></g></g></svg>