<?xml version="1.0" encoding="utf-8"?>
<!-- Generator: Adobe Illustrator 26.5.0, SVG Export Plug-In . SVG Version: 6.00 Build 0)  -->
<svg version="1.1" id="레이어_1" xmlns="http://www.w3.org/2000/svg" xmlns:xlink="http://www.w3.org/1999/xlink" x="0px"
	 y="0px" viewBox="0 0 987 392.1" style="enable-background:new 0 0 987 392.1;" xml:space="preserve">
<style type="text/css">
	.st0{fill:#FFFFFF;}
</style>
<g>
	<path class="st0" d="M688.1,42.2L652.7,37L636.9,5c-0.3-0.5-0.7-1-1.1-1.3c-0.5-0.3-1.1-0.5-1.6-0.5c-0.6,0-1.1,0.2-1.6,0.5
		C632,4,631.6,4.5,631.3,5l-15.8,32l-35.4,5.1c-0.6,0.1-1.1,0.3-1.5,0.7c-0.4,0.4-0.8,0.9-1,1.4c-0.2,0.5-0.2,1.1-0.1,1.7
		c0.1,0.6,0.4,1.1,0.8,1.5L604,72.3l-6.1,35.1c-0.1,0.6,0,1.2,0.2,1.7c0.2,0.5,0.6,1,1.1,1.3c0.5,0.3,1,0.5,1.6,0.6
		c0.6,0,1.2-0.1,1.7-0.3l31.7-16.6l31.7,16.6c0.4,0.2,0.9,0.4,1.4,0.4c0.7,0,1.3-0.2,1.8-0.6c0.5-0.3,0.8-0.8,1-1.3
		c0.2-0.5,0.3-1.1,0.2-1.7l-6.1-35.2l25.6-24.9c0.4-0.4,0.7-0.9,0.8-1.5c0.1-0.6,0.1-1.1-0.1-1.7c-0.2-0.5-0.5-1-1-1.4
		C689.2,42.5,688.7,42.2,688.1,42.2z M658.7,69c-0.4,0.4-0.6,0.8-0.8,1.3c-0.2,0.5-0.2,1-0.1,1.5l5.3,30.6l-27.6-14.4
		c-0.4-0.2-0.9-0.3-1.4-0.3c-0.5,0-1,0.1-1.4,0.3l-27.6,14.5l5.3-30.6c0.1-0.5,0-1-0.1-1.5c-0.2-0.5-0.4-0.9-0.8-1.3l-22.3-21.6
		l30.8-4.5c0.5-0.1,1-0.3,1.4-0.6c0.4-0.3,0.7-0.7,1-1.1l13.8-27.8l13.8,27.8c0.2,0.4,0.6,0.8,1,1.1c0.4,0.3,0.9,0.5,1.4,0.6
		l30.8,4.5L658.7,69z"/>
	<path class="st0" d="M636.7,26.7c-0.2-0.5-0.6-0.9-1.1-1.2c-0.5-0.3-1-0.4-1.5-0.4c-0.5,0-1,0.1-1.5,0.4c-0.5,0.3-0.8,0.7-1.1,1.2
		l-9.5,19.1L601,48.8c-0.5,0.1-1,0.3-1.4,0.6c-0.4,0.3-0.7,0.8-0.9,1.3c-0.2,0.5-0.2,1-0.1,1.6c0.1,0.5,0.4,1,0.8,1.3l15.3,14.8
		l-3.6,21c-0.1,0.5,0,1.1,0.2,1.6c0.2,0.5,0.5,0.9,1,1.2c0.4,0.3,0.9,0.5,1.5,0.5c0.5,0,1.1-0.1,1.5-0.3l18.9-9.9l18.8,9.9
		c0.4,0.2,0.9,0.3,1.3,0.3c0.4,0,0.8-0.1,1.2-0.3c0.4-0.2,0.7-0.4,1-0.7c0.3-0.3,0.5-0.7,0.6-1.1c0.1-0.4,0.1-0.8,0.1-1.2l-3.6-21
		l15.3-14.8c0.4-0.4,0.6-0.8,0.8-1.4c0.1-0.5,0.1-1.1-0.1-1.6c-0.2-0.5-0.5-0.9-0.9-1.3c-0.4-0.3-0.9-0.6-1.4-0.6l-21.1-3
		L636.7,26.7z M648.5,65.5c-0.3,0.3-0.6,0.7-0.7,1.2c-0.1,0.4-0.2,0.9-0.1,1.4l2.9,16.8l-15.1-7.9c-0.4-0.2-0.9-0.3-1.3-0.3
		s-0.9,0.1-1.3,0.3l-15.1,7.9l2.9-16.8c0.1-0.5,0-0.9-0.1-1.4c-0.1-0.4-0.4-0.8-0.7-1.2l-12.2-11.9l16.9-2.4
		c0.5-0.1,0.9-0.2,1.3-0.5c0.4-0.3,0.7-0.6,0.9-1l7.6-15.3l7.5,15.3c0.2,0.4,0.5,0.8,0.9,1c0.4,0.3,0.8,0.4,1.3,0.5l16.9,2.4
		L648.5,65.5z"/>
	<path class="st0" d="M81.3,202.6v-44.7c0-0.6-0.2-1.2-0.5-1.8c-0.3-0.5-0.8-1-1.3-1.3c-0.5-0.3-1.2-0.5-1.8-0.5
		c-0.6,0-1.2,0.2-1.8,0.5l-19.1,10.9l-18.3-10.9c-0.5-0.3-1.2-0.5-1.8-0.5c-0.6,0-1.2,0.2-1.8,0.5c-0.5,0.3-1,0.8-1.3,1.3
		c-0.3,0.5-0.5,1.2-0.5,1.8v44.7c-5.7,4.9-9.8,11.4-11.6,18.7s-1.5,15,1.1,22c2.6,7,7.3,13.1,13.5,17.4c6.2,4.3,13.5,6.6,21,6.6
		s14.9-2.3,21-6.6c6.2-4.3,10.9-10.4,13.5-17.4c2.6-7,3-14.7,1.1-22S87,207.5,81.3,202.6L81.3,202.6z M74.1,197.7
		c-2.2-1.2-4.5-2.1-6.9-2.8v-27.6l6.9-3.3V197.7z M58.5,171.4l1.6-0.8v23c-1-0.1-1.9-0.1-2.9-0.1s-2.2,0.1-3.2,0.1v-22.8l1,0.5
		c0.5,0.3,1.2,0.5,1.8,0.5C57.4,171.9,58,171.8,58.5,171.4z M40.3,164.1l6.6,3.3V195c-2.3,0.7-4.5,1.6-6.6,2.7V164.1z M57.2,260.5
		c-5.9,0-11.7-1.7-16.7-5c-4.9-3.3-8.8-7.9-11.1-13.4c-2.3-5.5-2.9-11.5-1.8-17.3c1.1-5.8,4-11.2,8.1-15.4c4.2-4.2,9.5-7.1,15.3-8.2
		c5.8-1.2,11.8-0.6,17.3,1.7c5.5,2.3,10.2,6.1,13.5,11c3.3,4.9,5.1,10.7,5.1,16.6c0,7.9-3.1,15.5-8.7,21.1
		C72.7,257.3,65.1,260.5,57.2,260.5z"/>
	<path class="st0" d="M54.9,213.2l-11.4,32.6h5.7l2.8-8.6h10.7l2.8,8.6h5.7L60,213.2H54.9z M53.7,232.2l3.7-11.4l3.7,11.4H53.7z"/>
	<path class="st0" d="M249.7,168.5c-0.8,0-1.6,0.2-2.4,0.4l-31.3,9.5c-2.5,0.7-5.1,1.1-7.7,1.1h-43.4c-2.2,0-4.3,0.8-5.9,2.3
		c-1.6,1.5-2.5,3.5-2.6,5.7h-8.9c-0.5,0-1,0.1-1.5,0.3c-0.5,0.2-0.9,0.5-1.3,0.8c-0.4,0.4-0.7,0.8-0.9,1.3c-0.2,0.5-0.3,1-0.3,1.5
		v29c0,0.5,0.1,1,0.3,1.5c0.2,0.5,0.5,0.9,0.9,1.3c0.4,0.4,0.8,0.6,1.3,0.8c0.5,0.2,1,0.3,1.5,0.3h8.9c0.1,2.2,1,4.2,2.6,5.8
		c1.6,1.5,3.7,2.3,5.9,2.3h1.4v17.9c0,0.9,0.4,1.7,1,2.4c0.6,0.6,1.5,1,2.4,1h10.4c0.4,0,0.9-0.1,1.3-0.2c0.4-0.2,0.8-0.4,1.1-0.7
		c0.3-0.3,0.6-0.7,0.7-1.1c0.2-0.4,0.3-0.8,0.3-1.3v-17.8h24.7c2.6,0.1,5.2,0.5,7.7,1.1l31.4,9.3c0.8,0.2,1.6,0.4,2.4,0.4
		c0.9,0,1.9-0.2,2.8-0.5c0.9-0.4,1.7-0.9,2.3-1.6c0.7-0.7,1.2-1.5,1.5-2.4c0.3-0.9,0.5-1.8,0.5-2.8v-60.2c0-1-0.1-1.9-0.5-2.8
		c-0.3-0.9-0.9-1.7-1.5-2.4c-0.7-0.7-1.5-1.2-2.3-1.6C251.6,168.6,250.7,168.4,249.7,168.5z M156.3,216.5h-7v-21.3h7V216.5z
		 M177.7,246.8h-5.6v-14.5h5.6V246.8z M197.2,224.5h-32.4c-0.1,0-0.3-0.1-0.4-0.2c-0.1-0.1-0.2-0.2-0.2-0.4v-36.2
		c0-0.1,0.1-0.3,0.2-0.4c0.1-0.1,0.2-0.2,0.4-0.2h32.4V224.5z M209.4,224.5h-1.1h-4.2v-37.3h4.2h1.1V224.5z M249.9,231
		c0,0.5-0.1,0.9-0.4,1.4c-0.2,0.4-0.5,0.8-0.9,1.1c-0.4,0.3-0.8,0.5-1.3,0.5c-0.5,0.1-1,0-1.4-0.1l-27.6-7.9
		c-0.6-0.2-1.3-0.4-2.1-0.5v-39.2c0.8-0.2,1.5-0.3,2.1-0.5l27.6-8.1c0.5-0.1,0.9-0.2,1.4-0.1c0.5,0.1,0.9,0.3,1.3,0.5
		c0.4,0.3,0.7,0.6,0.9,1.1c0.2,0.4,0.3,0.9,0.4,1.4L249.9,231z"/>
	<path class="st0" d="M383.1,197.6c-6.2-2.2-12.9-2.3-19.2-0.3c-2.1-19.4-18.3-34.6-38-34.6h-0.3c-21,0.1-38,17.6-37.9,39
		c0,9.1,3.2,17.8,9,24.8c3.3,4.1,7.1,7.8,11.3,10.8l0.2,0.2c2.3,1.8,20.3,14.1,21.1,14.7c0.5,0.3,1.1,0.5,1.7,0.5
		c0.4,0,0.9-0.1,1.3-0.3c0.5-0.2,0.9-0.6,1.2-1c0.3-0.4,0.5-0.9,0.6-1.5l1.8-13.2c4.2-1.2,8.2-3.1,11.8-5.4c1.7,6.1,6.7,10.6,9.8,13
		l-6.2,9.9c-0.4,0.6-0.5,1.2-0.5,1.9c0,0.7,0.3,1.3,0.7,1.8c0.3,0.4,0.7,0.7,1.1,0.9c0.4,0.2,0.9,0.3,1.4,0.3c0.3,0,0.7-0.1,1-0.2
		l23.2-8.3c0,0,2.9-1.1,3.4-1.3c9.5-3.9,14.9-8.7,17.6-15.7c2.5-7,2.2-14.7-0.9-21.4c-1.5-3.3-3.6-6.3-6.2-8.8
		C389.6,200.9,386.5,198.9,383.1,197.6z M332.9,231.2c-0.6,0.1-1.2,0.4-1.7,0.9c-0.5,0.5-0.7,1.1-0.8,1.7l-1.4,10.3
		c-6.2-4.3-15.2-10.5-16.7-11.6l-0.2-0.2c-3.9-2.8-7.4-6.2-10.4-9.9c-4.8-5.8-7.5-13.2-7.6-20.7c-0.1-17.9,14.1-32.5,31.7-32.6h0.2
		c17.5,0,31.8,14.4,31.9,32.2C358,226.2,333.9,231,332.9,231.2z M393.7,231.3c-1.4,3.7-4.2,8-14.1,12.1l-3.2,1.2l-14.6,5.3l3-4.8
		c0.2-0.4,0.4-0.8,0.4-1.2c0.1-0.4,0.1-0.9,0-1.3c-0.1-0.4-0.3-0.8-0.5-1.1c-0.3-0.3-0.6-0.6-0.9-0.8c-0.1-0.1-10-6-10-13.7
		c6.3-6,10.1-14.3,10.4-23.1c0.3,0,0.6-0.1,0.9-0.2c5.2-1.9,10.8-2,16-0.2c5.3,2,9.6,6.1,12,11.2C395.4,220.1,395.6,226,393.7,231.3
		z"/>
	<path class="st0" d="M372.7,210.1l-8.1,24.6h4l2-6.5h7.6l2,6.5h4l-8.1-24.6H372.7z M371.9,224.5l2.6-8.6l2.7,8.6H371.9z"/>
	<path class="st0" d="M341.3,200.2c0-12.5-6.9-19.5-15.7-19.5c-8.8,0-15.7,7-15.7,19.5s6.9,19.5,15.7,19.5c2.9,0,5.7-0.8,8.1-2.3
		l4.6,4.7l3.4-4.1l-4.2-4.3C339.9,210.4,341.3,205.9,341.3,200.2z M333.4,209.5L330,206l-3.5,4.2l3,3.1c-1.2,0.6-2.6,0.9-3.9,0.8
		c-6.2,0-10-5.3-10-13.9c0-8.6,3.8-13.9,10-13.9s10,5.3,10,13.9C335.7,203.5,335,206.7,333.4,209.5z"/>
	<path class="st0" d="M545.2,186.4c-1.2-3.8-3.6-7.2-6.9-9.5c-3.2-2.4-7.2-3.6-11.2-3.6c-1.8,0-3.7,0.3-5.4,0.8
		c-2.8,0.8-5.3,2.2-7.4,4.1c-2.1,1.9-3.8,4.3-4.8,7l-48.3-7.9c-0.4-2-1.2-3.9-2.3-5.5c-1.2-1.7-2.6-3-4.4-4.1s-3.6-1.7-5.6-2
		c-2-0.3-4-0.1-6,0.5c-1.8,0.5-3.5,1.4-4.9,2.5c-1.5,1.2-2.7,2.6-3.6,4.2c-0.9,1.6-1.5,3.4-1.7,5.3c-0.2,1.8,0,3.7,0.5,5.5
		c0.9,2.7,2.5,5.1,4.7,6.9c2.2,1.8,4.9,2.8,7.8,3.1l6.1,31.5c-3.3,1.8-5.9,4.8-7.3,8.3c-1.4,3.5-1.6,7.4-0.5,11
		c1.1,3.5,3.3,6.5,6.3,8.7c3,2.1,6.5,3.3,10.2,3.3c1.7,0,3.3-0.2,4.9-0.7c2.3-0.6,4.4-1.7,6.3-3.2c1.8-1.5,3.3-3.4,4.4-5.6
		c1-2.1,1.6-4.5,1.6-6.9c0-2.4-0.4-4.7-1.4-6.9l38.6-27.4c2.4,2,5.3,3.5,8.4,4.1c3.1,0.7,6.3,0.5,9.4-0.4c2.3-0.7,4.5-1.8,6.4-3.3
		c1.9-1.5,3.5-3.4,4.7-5.5c1.2-2.1,1.9-4.5,2.2-6.9C546.1,191.2,545.9,188.8,545.2,186.4z M449.1,186.6c-0.7,0.2-1.4,0.3-2.1,0.3
		c-1.6,0-3.1-0.5-4.4-1.4c-1.3-0.9-2.2-2.2-2.7-3.7c-0.3-0.9-0.4-1.9-0.3-2.8c0.1-1,0.4-1.9,0.9-2.7c0.5-0.8,1.1-1.6,1.8-2.2
		c0.8-0.6,1.6-1,2.5-1.3c0.7-0.2,1.4-0.3,2.1-0.3c1.6,0,3.1,0.5,4.4,1.4c1.3,0.9,2.2,2.2,2.7,3.7c0.3,0.9,0.4,1.9,0.3,2.8
		c-0.1,1-0.4,1.9-0.9,2.7c-0.5,0.8-1.1,1.6-1.8,2.2C450.9,185.9,450.1,186.3,449.1,186.6z M463.3,249.1c-1,0.3-1.9,0.4-2.9,0.4
		c-2.2,0-4.3-0.7-6-2c-1.8-1.3-3.1-3.1-3.7-5.1c-0.4-1.3-0.5-2.6-0.4-3.9c0.1-1.3,0.5-2.6,1.2-3.7c0.6-1.2,1.5-2.2,2.5-3
		s2.2-1.4,3.5-1.8c1-0.3,1.9-0.4,2.9-0.4c2.2,0,4.3,0.7,6,2c1.8,1.3,3.1,3.1,3.7,5.1c0.4,1.3,0.5,2.6,0.4,3.9
		c-0.1,1.3-0.5,2.6-1.2,3.7c-0.6,1.2-1.5,2.2-2.5,3C465.8,248.1,464.6,248.7,463.3,249.1z M472.2,227.5c-3.2-3-7.4-4.6-11.8-4.6
		c-0.6,0-1.3,0-1.9,0.1l-5.9-30.4c1.9-0.8,3.5-1.9,4.9-3.4c1.4-1.5,2.4-3.2,3.1-5.1l47.6,7.8c0,1.7,0.3,3.5,0.8,5.1
		c0.4,1.1,0.8,2.2,1.4,3.3L472.2,227.5z M530.5,202.9c-3,0.9-6.2,0.6-9-0.9c-2.8-1.5-4.9-3.9-5.8-6.9c-0.4-1.5-0.6-3-0.4-4.5
		c0.2-1.5,0.6-3,1.4-4.4c0.7-1.3,1.8-2.5,3-3.5c1.2-1,2.6-1.7,4.1-2.1c1.1-0.3,2.3-0.5,3.4-0.5c2.5,0,5,0.8,7,2.3
		c2,1.5,3.6,3.6,4.3,6c0.4,1.5,0.6,3,0.4,4.6c-0.2,1.5-0.6,3-1.4,4.4c-0.7,1.3-1.8,2.5-3,3.5C533.4,201.7,532,202.4,530.5,202.9z"/>
	<path class="st0" d="M724.6,59.3H739v45.1c0,0.5,0.1,1,0.3,1.4c0.2,0.5,0.5,0.9,0.8,1.2c0.3,0.4,0.8,0.6,1.2,0.8
		c0.5,0.2,0.9,0.3,1.4,0.3h22.5c1,0,2-0.4,2.7-1.1c0.7-0.7,1.1-1.7,1.1-2.7V76.5h17.4v27.9c0,1,0.4,2,1.1,2.7
		c0.7,0.7,1.7,1.1,2.7,1.1h22.5c1,0,2-0.4,2.7-1.1c0.7-0.7,1.1-1.7,1.1-2.7V59.3h14.3c1,0,2-0.4,2.7-1.1c0.7-0.7,1.1-1.7,1.1-2.7
		c0-0.6-0.1-1.2-0.4-1.7c-0.3-0.5-0.6-1-1.1-1.3L780,7.1c-0.7-0.6-1.5-0.9-2.4-0.9c-0.9,0-1.7,0.3-2.4,0.9l-53,45.5
		c-0.6,0.5-1,1.2-1.2,1.9c-0.2,0.8-0.2,1.5,0.1,2.3c0.3,0.7,0.7,1.4,1.4,1.8C723.1,59,723.8,59.3,724.6,59.3z M777.6,14.9l42.7,36.7
		h-7.8c-1,0-2,0.4-2.7,1.1c-0.7,0.7-1.1,1.7-1.1,2.7v45.1h-15V72.7c0-1-0.4-2-1.1-2.7c-0.7-0.7-1.7-1.1-2.7-1.1h-24.9
		c-1,0-2,0.4-2.6,1.1c-0.7,0.7-1.1,1.7-1.1,2.7v27.9h-15V55.5c0-1-0.4-2-1.1-2.7c-0.7-0.7-1.7-1.1-2.7-1.1h-7.8L777.6,14.9z"/>
	<path class="st0" d="M344.5,0.5c-11.2,0-22.2,3.3-31.5,9.6c-9.3,6.2-16.6,15.1-20.9,25.4s-5.4,21.8-3.2,32.8
		c2.2,11,7.6,21.1,15.5,29c7.9,7.9,18,13.3,29,15.5c11,2.2,22.4,1.1,32.8-3.2c10.4-4.3,19.2-11.6,25.4-20.9
		c6.2-9.3,9.6-20.3,9.6-31.5c0-15-6-29.4-16.6-40.1C374,6.5,359.6,0.5,344.5,0.5z M344.5,107.3c-9.9,0-19.6-2.9-27.8-8.4
		c-8.2-5.5-14.7-13.3-18.5-22.5s-4.8-19.2-2.9-29c1.9-9.7,6.7-18.7,13.7-25.7c7-7,15.9-11.8,25.7-13.7c9.7-1.9,19.8-0.9,29,2.9
		c9.2,3.8,17,10.2,22.5,18.5c5.5,8.2,8.4,17.9,8.4,27.8c0,13.3-5.3,26-14.7,35.4C370.6,102,357.8,107.3,344.5,107.3z"/>
	<path class="st0" d="M360.1,48.2h3.4c0.4,0,0.8-0.2,1.1-0.5c0.3-0.3,0.5-0.7,0.5-1.1c0-2.8-1.1-5.6-3.2-7.6c-2-2-4.7-3.1-7.6-3.2
		h-6.6V32c0-0.8-0.4-1.6-1-2.2c-0.6-0.6-1.4-0.9-2.3-0.9c-0.8,0-1.7,0.3-2.3,0.9c-0.6,0.6-1,1.4-1,2.2v3.9h-6.6
		c-1.4,0-2.8,0.3-4.1,0.8c-1.3,0.5-2.5,1.3-3.5,2.3c-1,1-1.8,2.2-2.3,3.5c-0.5,1.3-0.8,2.7-0.8,4.1v3.2c0,1.4,0.3,2.8,0.8,4.1
		c0.5,1.3,1.3,2.5,2.3,3.5c1,1,2.2,1.8,3.5,2.3c1.3,0.5,2.7,0.8,4.1,0.8h19.7c1.1,0,2.2,0.4,2.9,1.2c0.8,0.8,1.2,1.8,1.2,2.9v3.2
		c0,0.5-0.1,1.1-0.3,1.6c-0.2,0.5-0.5,1-0.9,1.3c-0.4,0.4-0.8,0.7-1.3,0.9c-0.5,0.2-1,0.3-1.6,0.3h-19.7c-1.1,0-2.2-0.4-2.9-1.2
		c-0.8-0.8-1.2-1.8-1.2-2.9c0-0.4-0.2-0.8-0.4-1.1c-0.3-0.3-0.7-0.5-1.1-0.5h-3.4c-0.2,0-0.4,0-0.6,0.1c-0.2,0.1-0.4,0.2-0.5,0.3
		c-0.1,0.1-0.3,0.3-0.3,0.5c-0.1,0.2-0.1,0.4-0.1,0.6c0,2.8,1.1,5.6,3.2,7.6c2,2,4.7,3.1,7.6,3.2h6.6v3.9c0,0.4,0,0.9,0.2,1.3
		c0.2,0.4,0.4,0.8,0.7,1.1c0.3,0.3,0.7,0.6,1.1,0.8c0.4,0.2,0.9,0.3,1.3,0.3s0.9-0.1,1.3-0.3c0.4-0.2,0.8-0.4,1.1-0.8
		c0.3-0.3,0.5-0.7,0.7-1.1c0.2-0.4,0.2-0.9,0.2-1.3v-3.8h6.6c2.8,0,5.6-1.1,7.6-3.2c2-2,3.1-4.7,3.1-7.6v-3.2c0-2.8-1.1-5.6-3.2-7.6
		c-2-2-4.7-3.1-7.6-3.2h-19.7c-1.1,0-2.2-0.4-2.9-1.2c-0.8-0.8-1.2-1.8-1.2-2.9v-3.2c0-0.5,0.1-1.1,0.3-1.6c0.2-0.5,0.5-1,0.9-1.3
		c0.4-0.4,0.8-0.7,1.3-0.9c0.5-0.2,1-0.3,1.6-0.3h19.7c0.5,0,1.1,0.1,1.6,0.3c0.5,0.2,1,0.5,1.3,0.9c0.4,0.4,0.7,0.8,0.9,1.3
		c0.2,0.5,0.3,1,0.3,1.6c0,0.4,0.2,0.8,0.5,1.1C359.3,48,359.7,48.2,360.1,48.2z"/>
	<path class="st0" d="M113.6,47.5l-0.4-2.3l-9.4-1.4c-1-3.5-2.4-6.8-4.1-10l5.7-7.7l-1.3-1.9c-1.9-2.7-4-5.2-6.3-7.5
		c-2.3-2.3-4.8-4.4-7.5-6.3l-1.9-1.3l-1.9,1.4c-0.4,0.3-1.7,1.2-5.8,4.3c-3.2-1.8-6.5-3.1-10-4.1l-1.3-9.4l-2.3-0.4
		c-6.5-1.1-13-1.1-19.5,0l-2.3,0.4l-1.4,9.4c-3.5,1-6.8,2.4-10,4.1L28,10.5l-1.9-1.4l-1.9,1.4c-5.3,3.8-10,8.4-13.8,13.8l-1.3,1.9
		l5.7,7.6c-1.7,3.2-3.1,6.5-4.1,10l-9.4,1.3l-0.4,2.3c-1.1,6.4-1.1,13,0,19.5l0.4,2.3l9.4,1.4c1,3.5,2.4,6.8,4.1,10l-5.7,7.6
		l1.3,1.9c3.8,5.3,8.4,10,13.8,13.8l1.9,1.3l7.7-5.7c3.2,1.8,6.5,3.1,10,4.1l1.4,9.5l2.3,0.4c6.4,1.1,13,1.1,19.5,0l2.3-0.4l1.4-9.5
		c3.5-1,6.8-2.4,10-4.2c1.3,1.1,3.3,2.5,5.7,4.3l1.9,1.4l1.9-1.3c5.3-3.8,10-8.4,13.8-13.8l1.3-1.9l-5.7-7.6c1.8-3.2,3.1-6.5,4.1-10
		l9.5-1.4l0.4-2.3C114.7,60.5,114.7,53.9,113.6,47.5L113.6,47.5z M107.6,63.6c-8.4,1.2-9.8,1.5-9.7,3.9c-1,4-2.6,7.9-4.7,11.4
		c-1.5,1.7-1.1,2.4,4.2,9.4c-1.3,1.7-2.7,3.3-4.2,4.8c-1.5,1.5-3.1,2.9-4.8,4.2L81,91.8L79.1,93c-3.7,2.3-7.7,4-11.8,5
		c-2.3,0.1-2.5,1-3.8,9.6c-4.2,0.5-8.5,0.5-12.7,0l-1.3-9L47.4,98c-4.2-1-8.2-2.7-11.9-4.9c-1.7-1.4-2.3-1.1-9.4,4.2
		c-1.7-1.3-3.3-2.7-4.8-4.2c-1.5-1.5-2.9-3.1-4.2-4.8c5.1-6.9,5.3-7.3,4.3-9.2c-2.2-3.6-3.9-7.6-4.9-11.7c0.1-2.4-1.3-2.7-9.7-3.9
		c-0.5-4.2-0.5-8.5,0-12.7c8.4-1.2,9.8-1.5,9.7-3.9c1-4.1,2.7-8.1,4.9-11.7l1.1-1.9l-5.5-7.3c2.6-3.4,5.6-6.4,9-9
		c6.9,5.1,7.3,5.3,9.2,4.3c3.6-2.2,7.6-3.9,11.7-4.9c2.4,0.1,2.7-1.3,3.9-9.7c4.2-0.5,8.5-0.5,12.7,0c1.2,8.4,1.4,9.6,3.8,9.6
		c4.1,1,8,2.6,11.6,4.8c1.7,1.4,2.4,1,9.4-4.2c3.4,2.6,6.4,5.6,9,9C92.1,33,92,33.4,93,35.3c2.2,3.6,3.9,7.6,4.9,11.7
		c-0.1,2.4,1.3,2.7,9.7,3.9C108.1,55.1,108.1,59.4,107.6,63.6L107.6,63.6z"/>
	<path class="st0" d="M57.2,25.4c-6.3,0-12.4,1.9-17.6,5.4c-5.2,3.5-9.3,8.5-11.7,14.3c-2.4,5.8-3,12.2-1.8,18.3
		c1.2,6.2,4.3,11.8,8.7,16.2c4.4,4.4,10.1,7.5,16.3,8.7s12.5,0.6,18.3-1.8c5.8-2.4,10.8-6.5,14.2-11.7c3.5-5.2,5.3-11.4,5.3-17.6
		c0-8.4-3.4-16.5-9.3-22.5C73.7,28.8,65.6,25.4,57.2,25.4z M57.2,82c-4.9,0-9.7-1.5-13.7-4.2c-4.1-2.7-7.2-6.6-9.1-11.1
		c-1.9-4.5-2.4-9.5-1.4-14.3c1-4.8,3.3-9.2,6.8-12.7c3.5-3.5,7.9-5.8,12.7-6.8c4.8-1,9.8-0.5,14.3,1.4c4.5,1.9,8.4,5,11.1,9.1
		c2.7,4.1,4.2,8.9,4.2,13.7c0,3.3-0.6,6.5-1.9,9.5c-1.2,3-3.1,5.7-5.4,8.1c-2.3,2.3-5,4.1-8.1,5.4C63.7,81.4,60.4,82,57.2,82
		L57.2,82z"/>
	<path class="st0" d="M57.2,40.1c-3.4,0-6.7,1-9.5,2.9c-2.8,1.9-5,4.5-6.3,7.7c-1.3,3.1-1.6,6.6-1,9.9c0.7,3.3,2.3,6.4,4.7,8.7
		c2.4,2.4,5.4,4,8.8,4.7c3.3,0.7,6.7,0.3,9.9-1c3.1-1.3,5.8-3.5,7.6-6.3c1.9-2.8,2.9-6.1,2.8-9.5c0-4.5-1.8-8.8-5-12
		C66,41.9,61.7,40.1,57.2,40.1z M57.2,67.2c-2,0-3.9-0.6-5.6-1.7c-1.7-1.1-2.9-2.7-3.7-4.5c-0.8-1.8-1-3.9-0.6-5.8
		c0.4-2,1.3-3.7,2.8-5.2c1.4-1.4,3.2-2.4,5.2-2.8c2-0.4,4-0.2,5.8,0.6c1.8,0.8,3.4,2.1,4.5,3.7c1.1,1.7,1.7,3.6,1.7,5.6
		c0,2.7-1.1,5.2-2.9,7.1C62.4,66.2,59.9,67.2,57.2,67.2z"/>
	<path class="st0" d="M446.7,113.9H532c0.4,0,0.7-0.1,1-0.2c0.3-0.1,0.6-0.3,0.9-0.6c0.3-0.2,0.5-0.5,0.6-0.9c0.1-0.3,0.2-0.7,0.2-1
		v-0.1c0,0,0-0.1,0-0.1s0-0.1,0-0.1V11.5c0-0.7-0.3-1.4-0.8-1.9c-0.5-0.5-1.2-0.8-1.9-0.8h-18.6h-0.2V3.2c0-0.4-0.1-0.7-0.2-1
		c-0.1-0.3-0.3-0.6-0.6-0.9c-0.3-0.2-0.5-0.4-0.9-0.6c-0.3-0.1-0.7-0.2-1-0.2h-42.3c-0.4,0-0.7,0.1-1,0.2c-0.3,0.1-0.6,0.3-0.9,0.6
		c-0.3,0.2-0.4,0.5-0.6,0.9c-0.1,0.3-0.2,0.7-0.2,1v5.7h-18.8c-0.7,0-1.4,0.3-1.9,0.8c-0.5,0.5-0.8,1.2-0.8,1.9v99.7
		c0,0.7,0.3,1.4,0.8,1.9C445.3,113.6,446,113.9,446.7,113.9z M471,8.6c0-0.4,0.1-0.7,0.2-1c0.1-0.3,0.3-0.6,0.6-0.9
		c0.3-0.2,0.5-0.4,0.9-0.6c0.3-0.1,0.7-0.2,1-0.2H505c0.7,0,1.4,0.3,1.9,0.8c0.5,0.5,0.8,1.2,0.8,1.9v6c0,0.7-0.3,1.4-0.8,1.9
		c-0.5,0.5-1.2,0.8-1.9,0.8h-31.3c-0.4,0-0.7-0.1-1-0.2c-0.3-0.1-0.6-0.3-0.9-0.6c-0.3-0.2-0.5-0.5-0.6-0.9c-0.1-0.3-0.2-0.7-0.2-1
		V8.6z M449.5,17c0-0.7,0.3-1.4,0.8-1.9c0.5-0.5,1.2-0.8,1.9-0.8h13.2V20c0,0.4,0.1,0.7,0.2,1c0.1,0.3,0.3,0.6,0.6,0.9
		c0.3,0.2,0.5,0.4,0.9,0.6c0.3,0.1,0.7,0.2,1,0.2h42.3c0.4,0,0.7-0.1,1-0.2c0.3-0.1,0.6-0.3,0.9-0.6c0.3-0.2,0.5-0.5,0.6-0.9
		c0.1-0.3,0.2-0.7,0.2-1v-5.7h0.2h13c0.4,0,0.7,0.1,1,0.2c0.3,0.1,0.6,0.3,0.9,0.6c0.3,0.2,0.5,0.5,0.6,0.9c0.1,0.3,0.2,0.7,0.2,1
		v91.5h-76.9c-0.7,0-1.4-0.3-1.9-0.8c-0.5-0.5-0.8-1.2-0.8-1.9V17z"/>
	<path class="st0" d="M465,65.9h0.9c0.7,0,1.4-0.3,1.9-0.8c0.5-0.5,0.8-1.2,0.8-1.9c0-0.7-0.3-1.4-0.8-1.9c-0.5-0.5-1.2-0.8-1.9-0.8
		H465c-0.7,0-1.4,0.3-1.9,0.8c-0.5,0.5-0.8,1.2-0.8,1.9c0,0.7,0.3,1.4,0.8,1.9C463.6,65.6,464.3,65.9,465,65.9z"/>
	<path class="st0" d="M465,82.2h0.9c0.3,0,0.7-0.1,1-0.2s0.6-0.3,0.9-0.6c0.2-0.2,0.4-0.5,0.6-0.9c0.1-0.3,0.2-0.7,0.2-1
		c0-0.3-0.1-0.7-0.2-1c-0.1-0.3-0.3-0.6-0.6-0.9s-0.5-0.4-0.9-0.6c-0.3-0.1-0.7-0.2-1-0.2H465c-0.3,0-0.7,0.1-1,0.2
		c-0.3,0.1-0.6,0.3-0.9,0.6c-0.2,0.2-0.4,0.5-0.6,0.9c-0.1,0.3-0.2,0.7-0.2,1c0,0.3,0.1,0.7,0.2,1c0.1,0.3,0.3,0.6,0.6,0.9
		c0.2,0.2,0.5,0.4,0.9,0.6S464.7,82.2,465,82.2z"/>
	<path class="st0" d="M478.9,65.9h34.7c0.7,0,1.4-0.3,1.9-0.8c0.5-0.5,0.8-1.2,0.8-1.9c0-0.7-0.3-1.4-0.8-1.9
		c-0.5-0.5-1.2-0.8-1.9-0.8h-34.7c-0.7,0-1.4,0.3-1.9,0.8c-0.5,0.5-0.8,1.2-0.8,1.9c0,0.7,0.3,1.4,0.8,1.9
		C477.6,65.6,478.2,65.9,478.9,65.9z"/>
	<path class="st0" d="M478.9,82.2h34.7c0.3,0,0.7-0.1,1-0.2c0.3-0.1,0.6-0.3,0.9-0.6c0.2-0.2,0.4-0.5,0.6-0.9c0.1-0.3,0.2-0.7,0.2-1
		c0-0.3-0.1-0.7-0.2-1c-0.1-0.3-0.3-0.6-0.6-0.9c-0.2-0.2-0.5-0.4-0.9-0.6c-0.3-0.1-0.7-0.2-1-0.2h-34.7c-0.4,0-0.7,0.1-1,0.2
		c-0.3,0.1-0.6,0.3-0.9,0.6c-0.2,0.2-0.4,0.5-0.6,0.9c-0.1,0.3-0.2,0.7-0.2,1c0,0.3,0.1,0.7,0.2,1c0.1,0.3,0.3,0.6,0.6,0.9
		c0.2,0.2,0.5,0.4,0.9,0.6S478.6,82.2,478.9,82.2z"/>
	<path class="st0" d="M465,49.1h0.9c0.7,0,1.4-0.3,1.9-0.8c0.5-0.5,0.8-1.2,0.8-1.9c0-0.7-0.3-1.4-0.8-1.9c-0.5-0.5-1.2-0.8-1.9-0.8
		H465c-0.7,0-1.4,0.3-1.9,0.8c-0.5,0.5-0.8,1.2-0.8,1.9c0,0.7,0.3,1.4,0.8,1.9C463.6,48.8,464.3,49.1,465,49.1z"/>
	<path class="st0" d="M478.9,49.1h34.7c0.7,0,1.4-0.3,1.9-0.8c0.5-0.5,0.8-1.2,0.8-1.9c0-0.7-0.3-1.4-0.8-1.9
		c-0.5-0.5-1.2-0.8-1.9-0.8h-34.7c-0.7,0-1.4,0.3-1.9,0.8c-0.5,0.5-0.8,1.2-0.8,1.9c0,0.7,0.3,1.4,0.8,1.9
		C477.6,48.8,478.2,49.1,478.9,49.1z"/>
	<path class="st0" d="M249.7,17.5h-99c-4,0-7.2,3.6-7.2,7.9V89c0,4.4,3.2,7.9,7.2,7.9h99c4,0,7.2-3.5,7.2-7.9V25.4
		C256.8,21.1,253.6,17.5,249.7,17.5z M250.1,89c0,0.1,0,0.3-0.1,0.4c-0.1,0.1-0.2,0.2-0.3,0.2h-99c-0.1,0-0.3-0.1-0.3-0.2
		c-0.1-0.1-0.1-0.2-0.1-0.4V46h100L250.1,89z M250.1,40.3h-100V25.4c0-0.1,0-0.3,0.1-0.4c0.1-0.1,0.2-0.2,0.3-0.2h99
		c0.1,0,0.3,0.1,0.3,0.2c0.1,0.1,0.1,0.2,0.1,0.4L250.1,40.3z"/>
	<path class="st0" d="M175.6,73.6h49c1.1-0.1,2-0.6,2.7-1.4s1.1-1.8,1.1-2.9c0-1.1-0.4-2.1-1.1-2.9c-0.7-0.8-1.7-1.3-2.7-1.4h-49
		c-1.1,0.1-2,0.6-2.7,1.4c-0.7,0.8-1.1,1.8-1.1,2.9c0,1.1,0.4,2.1,1.1,2.9S174.6,73.5,175.6,73.6z"/>
	<path class="st0" d="M824.8,209.5c2.4-2.4,3.7-5.7,3.7-9.1v-2.1c0.1-1.9-0.3-3.8-1-5.6c-0.7-1.8-1.7-3.4-3.1-4.8
		c-1.3-1.4-2.9-2.5-4.7-3.2c-1.8-0.7-3.7-1.1-5.6-1.1s-3.8,0.4-5.6,1.1c-1.8,0.7-3.4,1.8-4.7,3.2c-1.3,1.4-2.4,3-3.1,4.8
		c-0.7,1.8-1,3.7-1,5.6v2.1c0,2.7,0.8,5.3,2.4,7.5c1.5,2.2,3.7,3.8,6.2,4.8l1.8,0.7c1,0.4,2.1,0.6,3.2,0.6h3.9
		c2.8,0,5.5,1.1,7.5,3.1c2,2,3.1,4.7,3.1,7.5V249h-22.7v6.2h29v-30.6c0-3.2-0.9-6.2-2.6-8.9C830.1,213,827.7,210.9,824.8,209.5z
		 M822.3,200.4c0,1.4-0.4,2.8-1.2,3.9c-0.8,1.1-1.9,2-3.2,2.5l-1.8,0.6c-0.6,0.2-1.1,0.3-1.7,0.3h-0.2c-0.6,0-1.2-0.1-1.7-0.3
		l-1.8-0.7c-1.3-0.5-2.4-1.3-3.2-2.5c-0.8-1.1-1.2-2.5-1.2-3.9v-2.1c0-1.1,0.1-2.2,0.5-3.2c0.4-1,1-1.9,1.7-2.7
		c0.8-0.8,1.7-1.4,2.7-1.8c1-0.4,2.1-0.6,3.2-0.6s2.2,0.2,3.2,0.6c1,0.4,1.9,1,2.7,1.8c0.8,0.8,1.3,1.7,1.7,2.7
		c0.4,1,0.6,2.1,0.5,3.2V200.4z"/>
	<path class="st0" d="M737.8,213.9h3.9c1.1-0.1,2.2-0.3,3.2-0.6l1.8-0.6c2.5-0.9,4.7-2.6,6.2-4.8c1.5-2.2,2.4-4.8,2.4-7.5v-2.1
		c0.1-1.9-0.3-3.8-1-5.6s-1.7-3.4-3.1-4.8c-1.3-1.4-2.9-2.5-4.7-3.2c-1.8-0.7-3.7-1.1-5.6-1.1c-1.9,0-3.8,0.4-5.6,1.1
		c-1.8,0.7-3.4,1.8-4.7,3.2c-1.3,1.4-2.4,3-3.1,4.8c-0.7,1.8-1,3.7-1,5.6v2.1c0,3.4,1.3,6.7,3.7,9.1c-2.8,1.4-5.2,3.5-6.9,6.2
		c-1.7,2.7-2.6,5.8-2.6,8.9v30.7h29V249h-22.8v-24.4c0-2.8,1.1-5.5,3.1-7.5C732.2,215.1,734.9,213.9,737.8,213.9z M732.8,198.3
		c0-1.1,0.1-2.2,0.5-3.2c0.4-1,1-1.9,1.7-2.7c0.8-0.8,1.7-1.4,2.7-1.8s2.1-0.6,3.2-0.6c1.1,0,2.2,0.2,3.2,0.6s1.9,1,2.7,1.8
		c0.8,0.8,1.3,1.7,1.7,2.7c0.4,1,0.6,2.1,0.5,3.2v2.1c0,1.4-0.4,2.8-1.2,3.9c-0.8,1.1-1.9,2-3.2,2.5l-1.8,0.6
		c-0.6,0.2-1.1,0.3-1.7,0.3h-0.2c-0.6,0-1.2-0.1-1.7-0.3l-1.8-0.7c-1.3-0.5-2.4-1.3-3.2-2.5c-0.8-1.1-1.2-2.5-1.2-3.9V198.3z"/>
	<path class="st0" d="M802.8,213.9h-0.1c-0.4-3.7-1.8-7.1-4.1-10c-2.3-2.9-5.3-5.1-8.7-6.5c1.6-1.5,2.9-3.3,3.7-5.3
		c0.9-2,1.3-4.2,1.3-6.3v-2.7c0.1-2.3-0.4-4.6-1.2-6.8c-0.9-2.2-2.1-4.1-3.8-5.8c-1.6-1.7-3.6-3-5.7-3.9c-2.1-0.9-4.5-1.4-6.8-1.4
		s-4.6,0.5-6.8,1.4c-2.1,0.9-4.1,2.2-5.7,3.9c-1.6,1.7-2.9,3.6-3.8,5.8c-0.9,2.2-1.3,4.5-1.2,6.8v2.7c0,2.2,0.5,4.3,1.3,6.3
		c0.9,2,2.2,3.8,3.8,5.3c-3.5,1.3-6.6,3.7-8.8,6.7s-3.6,6.6-4,10.3h-0.1v41.9h50.5v-39.4v-0.7c0-0.2,0-0.4,0-0.6L802.8,213.9z
		 M766.3,183.1c0-3,1.2-5.8,3.3-7.9c2.1-2.1,5-3.3,7.9-3.3c3,0,5.8,1.2,7.9,3.3c2.1,2.1,3.3,5,3.3,7.9v2.7c0,2-0.6,3.9-1.7,5.5
		c-1.1,1.6-2.7,2.8-4.6,3.5l-2.3,0.8c-0.8,0.3-1.6,0.4-2.4,0.4h-0.5c-0.8,0-1.6-0.2-2.4-0.4l-2.3-0.8c-1.8-0.7-3.4-1.9-4.6-3.5
		c-1.1-1.6-1.7-3.5-1.7-5.5V183.1z M796.6,250.1h-38.1v-33.2v-0.7c0-3.7,1.5-7.2,4.1-9.8c2.6-2.6,6.1-4.1,9.8-4.1h10.4
		c3.6,0,7,1.4,9.6,3.9c2.6,2.5,4.1,5.9,4.2,9.4L796.6,250.1z"/>
	<path class="st0" d="M661.7,239c-0.9,0-1.8,0.4-2.5,1c-0.6,0.7-1,1.5-1,2.5v18.2h-65.4v-99.4h65.4v18.2c0,0.9,0.4,1.8,1,2.5
		c0.7,0.6,1.5,1,2.5,1s1.8-0.4,2.5-1c0.7-0.7,1-1.5,1-2.5v-21.7c0-0.9-0.4-1.8-1-2.5c-0.7-0.7-1.5-1-2.5-1h-72.3
		c-0.5,0-0.9,0.1-1.3,0.3c-0.4,0.2-0.8,0.4-1.1,0.8c-0.3,0.3-0.6,0.7-0.8,1.1c-0.2,0.4-0.3,0.9-0.3,1.3v106.4c0,0.5,0.1,0.9,0.3,1.3
		c0.2,0.4,0.4,0.8,0.8,1.1c0.3,0.3,0.7,0.6,1.1,0.8s0.9,0.3,1.3,0.3h72.3c0.9,0,1.8-0.4,2.5-1c0.6-0.7,1-1.5,1-2.5v-21.7
		c0-0.9-0.4-1.8-1-2.5C663.5,239.4,662.6,239,661.7,239z"/>
	<path class="st0" d="M682.3,208.6l-20.1-20.3c-0.3-0.4-0.7-0.7-1.2-0.9c-0.4-0.2-0.9-0.3-1.4-0.3c-0.5,0-1,0.1-1.4,0.3
		c-0.5,0.2-0.9,0.5-1.2,0.8c-0.3,0.3-0.6,0.8-0.8,1.2c-0.2,0.5-0.3,0.9-0.3,1.4c0,0.5,0.1,1,0.3,1.4c0.2,0.4,0.5,0.8,0.9,1.2
		l13.9,14h-48.5c-1,0-1.9,0.4-2.5,1.1c-0.7,0.7-1.1,1.6-1.1,2.5c0,1,0.4,1.9,1.1,2.5c0.7,0.7,1.6,1.1,2.5,1.1H671l-13.8,14
		c-0.7,0.7-1,1.6-1,2.5c0,1,0.4,1.9,1,2.5c0.3,0.3,0.7,0.6,1.2,0.8c0.4,0.2,0.9,0.3,1.4,0.3c0.5,0,0.9-0.1,1.4-0.3
		c0.4-0.2,0.8-0.4,1.2-0.8l20.1-20.3c0.3-0.3,0.6-0.7,0.7-1.1c0.2-0.4,0.3-0.9,0.3-1.3c0-0.4-0.1-0.9-0.3-1.3
		C682.9,209.3,682.6,208.9,682.3,208.6z"/>
	<path class="st0" d="M880.9,70.1c-2,0-3.9-0.6-5.6-1.7c-1.6-1.1-2.9-2.7-3.7-4.5c-0.8-1.8-1-3.8-0.6-5.8s1.3-3.7,2.7-5.1
		c1.4-1.4,3.2-2.4,5.1-2.7c1.9-0.4,4-0.2,5.8,0.6s3.4,2,4.5,3.7c1.1,1.6,1.7,3.6,1.7,5.6c0,2.7-1.1,5.2-2.9,7.1
		C886.1,69.1,883.6,70.1,880.9,70.1z M880.9,55.6c-0.9,0-1.8,0.3-2.5,0.8s-1.3,1.2-1.7,2c-0.3,0.8-0.4,1.7-0.3,2.6
		c0.2,0.9,0.6,1.7,1.2,2.3c0.6,0.6,1.4,1.1,2.3,1.2c0.9,0.2,1.8,0.1,2.6-0.3c0.8-0.3,1.5-0.9,2-1.7c0.5-0.7,0.8-1.6,0.8-2.5
		c0-1.2-0.5-2.4-1.3-3.2S882.1,55.6,880.9,55.6z"/>
	<path class="st0" d="M912,49.7c-2,0-3.9-0.6-5.6-1.7c-1.6-1.1-2.9-2.7-3.7-4.5c-0.8-1.8-1-3.8-0.6-5.8s1.3-3.7,2.7-5.1
		c1.4-1.4,3.2-2.4,5.1-2.7c1.9-0.4,4-0.2,5.8,0.6c1.8,0.8,3.4,2,4.5,3.7s1.7,3.6,1.7,5.6c0,2.7-1.1,5.2-2.9,7.1
		C917.2,48.7,914.7,49.7,912,49.7z M912,35.2c-0.9,0-1.8,0.3-2.5,0.8c-0.7,0.5-1.3,1.2-1.7,2c-0.3,0.8-0.4,1.7-0.3,2.6
		s0.6,1.7,1.2,2.3c0.6,0.6,1.4,1.1,2.3,1.2c0.9,0.2,1.8,0.1,2.6-0.3c0.8-0.3,1.5-0.9,2-1.7c0.5-0.7,0.8-1.6,0.8-2.5
		c0-1.2-0.5-2.4-1.3-3.2C914.4,35.7,913.2,35.2,912,35.2z"/>
	<path class="st0" d="M943.2,22.1c-2,0-3.9-0.6-5.6-1.7c-1.6-1.1-2.9-2.7-3.7-4.5c-0.8-1.8-1-3.8-0.6-5.8c0.4-1.9,1.3-3.7,2.7-5.1
		c1.4-1.4,3.2-2.4,5.1-2.7c1.9-0.4,4-0.2,5.8,0.6c1.8,0.8,3.4,2,4.5,3.7c1.1,1.6,1.7,3.6,1.7,5.6c0,2.7-1.1,5.2-2.9,7.1
		C948.4,21.1,945.8,22.1,943.2,22.1z M943.2,7.6c-0.9,0-1.8,0.3-2.5,0.8c-0.7,0.5-1.3,1.2-1.7,2c-0.3,0.8-0.4,1.7-0.3,2.6
		c0.2,0.9,0.6,1.7,1.2,2.3c0.6,0.6,1.4,1.1,2.3,1.2c0.9,0.2,1.8,0.1,2.6-0.3c0.8-0.3,1.5-0.9,2-1.7c0.5-0.7,0.8-1.6,0.8-2.5
		c0-1.2-0.5-2.4-1.3-3.2C945.5,8.1,944.4,7.6,943.2,7.6z"/>
	<path class="st0" d="M974.3,42.8c-2,0-3.9-0.6-5.6-1.7c-1.6-1.1-2.9-2.7-3.7-4.5c-0.8-1.8-1-3.8-0.6-5.8c0.4-1.9,1.3-3.7,2.7-5.1
		c1.4-1.4,3.2-2.4,5.1-2.7c1.9-0.4,4-0.2,5.8,0.6c1.8,0.8,3.4,2,4.5,3.7c1.1,1.6,1.7,3.6,1.7,5.6c0,2.7-1.1,5.2-2.9,7.1
		C979.5,41.8,977,42.8,974.3,42.8z M974.3,28.3c-0.9,0-1.8,0.3-2.5,0.8c-0.7,0.5-1.3,1.2-1.7,2c-0.3,0.8-0.4,1.7-0.3,2.6
		c0.2,0.9,0.6,1.7,1.2,2.3c0.6,0.6,1.4,1.1,2.3,1.2c0.9,0.2,1.8,0.1,2.6-0.3c0.8-0.3,1.5-0.9,2-1.7c0.5-0.7,0.8-1.6,0.8-2.5
		c0-1.2-0.5-2.4-1.3-3.2C976.7,28.8,975.5,28.3,974.3,28.3z"/>
	<path class="st0" d="M905,41.9l-19.8,11.3l2.7,4.7l19.8-11.3L905,41.9z"/>
	<path class="st0" d="M935.5,14.5L916,33.4l3.8,3.9l19.5-18.9L935.5,14.5z"/>
	<path class="st0" d="M950.7,13.9l-3,4.5l19,12.7l3-4.5L950.7,13.9z"/>
	<path class="st0" d="M890.9,115.5h-20v-40h20V115.5z M876.4,110.1h9.1V81h-9.1V110.1z"/>
	<path class="st0" d="M922,115.5h-20V55.4h20V115.5z M907.5,110.1h9.1V60.9h-9.1V110.1z"/>
	<path class="st0" d="M953.2,115.5h-20V30.1h20V115.5z M938.6,110.1h9.1V35.6h-9.1V110.1z"/>
	<path class="st0" d="M984.3,115.5h-20V49.1h20V115.5z M969.8,110.1h9.1V54.5h-9.1V110.1z"/>
	<path class="st0" d="M986.3,261.2H882.7c-2.6,0-5-1-6.9-2.7c-1.8-1.8-2.9-4.2-2.9-6.8v-78.2c0-0.4,0.1-0.8,0.2-1.1s0.4-0.7,0.7-0.9
		c0.3-0.3,0.6-0.5,1-0.6c0.4-0.1,0.7-0.2,1.1-0.2c0.8,0,1.5,0.3,2.1,0.8c0.6,0.5,0.9,1.3,0.9,2v78.2c0,0.5,0.1,1,0.3,1.4
		c0.2,0.5,0.5,0.9,0.8,1.2c0.3,0.4,0.8,0.6,1.2,0.8c0.5,0.2,0.9,0.3,1.4,0.3h97.7v-75.9c0-0.8,0.3-1.6,0.9-2.1
		c0.6-0.6,1.3-0.9,2.1-0.9s1.6,0.3,2.1,0.9c0.6,0.6,0.9,1.3,0.9,2.1L986.3,261.2z"/>
	<path class="st0" d="M983.3,182.4H882.1c-2.4,0-4.7-0.9-6.4-2.6c-1.7-1.7-2.6-4-2.6-6.4c0-2.4,0.9-4.7,2.6-6.4s4-2.6,6.4-2.6h101.2
		v5.8H882.1c-0.9,0-1.7,0.3-2.3,0.9c-0.6,0.6-0.9,1.4-0.9,2.3s0.3,1.7,0.9,2.3c0.6,0.6,1.4,0.9,2.3,0.9h101.2V182.4z"/>
	<path class="st0" d="M986.3,228h-22.4c-2.8,0.1-5.5-0.9-7.6-2.8c-2.1-1.9-3.3-4.5-3.4-7.3c-0.1-2.8,0.9-5.5,2.8-7.6
		c1.9-2.1,4.5-3.3,7.3-3.4h23.3L986.3,228z M963.9,212.8c-1.2-0.1-2.5,0.4-3.4,1.2c-0.9,0.8-1.5,2-1.5,3.3c-0.1,1.2,0.4,2.5,1.2,3.4
		c0.8,0.9,2,1.5,3.3,1.5h16.9v-9.4H963.9z"/>
	<path class="st0" d="M932.8,233.7h-17.4c-1,0-1.9-0.2-2.8-0.5c-0.9-0.4-1.7-0.9-2.4-1.6c-0.7-0.7-1.2-1.5-1.6-2.4
		c-0.4-0.9-0.6-1.8-0.6-2.8v-2.3h6v2.3c0,0.2,0,0.4,0.1,0.6c0.1,0.2,0.2,0.3,0.3,0.5c0.1,0.1,0.3,0.2,0.5,0.3
		c0.2,0.1,0.4,0.1,0.6,0.1h17.4c0.2,0,0.4,0,0.6-0.1c0.2-0.1,0.3-0.2,0.5-0.3c0.1-0.1,0.2-0.3,0.3-0.5c0.1-0.2,0.1-0.4,0.1-0.6v-4.7
		c0-0.4-0.2-0.8-0.4-1c-0.3-0.3-0.6-0.4-1-0.4h-17.4c-2,0-3.8-0.7-5.2-2.1c-1.4-1.4-2.2-3.2-2.2-5.2v-4.6c0-1.9,0.8-3.8,2.2-5.2
		c1.4-1.4,3.3-2.1,5.2-2.1h17.4c1.9,0,3.8,0.7,5.2,2.1c1.4,1.4,2.2,3.2,2.2,5.2v2.3h-6v-2.3c0-0.4-0.2-0.8-0.4-1
		c-0.3-0.3-0.6-0.4-1-0.4h-17.4c-0.2,0-0.4,0-0.6,0.1c-0.2,0.1-0.3,0.2-0.5,0.3s-0.3,0.3-0.3,0.5c-0.1,0.2-0.1,0.4-0.1,0.6v4.7
		c0,0.2,0,0.4,0.1,0.6c0.1,0.2,0.2,0.3,0.3,0.5c0.1,0.1,0.3,0.2,0.5,0.3s0.4,0.1,0.6,0.1h17.5c1.9,0,3.8,0.7,5.2,2.1
		c1.4,1.4,2.2,3.2,2.2,5.2v4.6c0,1-0.2,1.9-0.6,2.8c-0.4,0.9-0.9,1.7-1.6,2.4c-0.7,0.7-1.5,1.2-2.4,1.6
		C934.7,233.6,933.8,233.7,932.8,233.7z"/>
	<path class="st0" d="M927.1,196.3h-6v7.8h6V196.3z"/>
	<path class="st0" d="M927.1,230.8h-6v7.8h6V230.8z"/>
	<path class="st0" d="M34.1,326.3V317c0-12.9,10.4-23.3,23.3-23.3c12.9,0,23.3,10.4,23.3,23.3v9.3h14c2.6,0,4.7,2.1,4.7,4.7v56
		c0,2.6-2.1,4.7-4.7,4.7H20.1c-2.6,0-4.7-2.1-4.7-4.7v-56c0-2.6,2.1-4.7,4.7-4.7H34.1z M33,334.6h-9.8v48.9h68.4v-48.9h-9.8v9.8
		h-9.8v-9.8H42.8v9.8H33V334.6z M43.4,326.3h28V317c0-7.7-6.3-14-14-14c-7.7,0-14,6.3-14,14V326.3z"/>
</g>
</svg>
