<svg width="987" height="268" viewBox="0 0 987 268" fill="none" xmlns="http://www.w3.org/2000/svg">
<g clip-path="url(#clip0_325_2)">
<path d="M688.14 42.1599L652.71 36.9999L636.88 4.99994C636.623 4.48381 636.227 4.04959 635.737 3.74606C635.247 3.44254 634.682 3.28174 634.105 3.28174C633.529 3.28174 632.964 3.44254 632.473 3.74606C631.983 4.04959 631.587 4.48381 631.33 4.99994L615.5 36.9999L580.07 42.1199C579.499 42.1996 578.962 42.4381 578.52 42.8082C578.077 43.1782 577.748 43.665 577.569 44.2131C577.389 44.7612 577.368 45.3486 577.506 45.9085C577.644 46.4684 577.937 46.9782 578.35 47.3799L604 72.2999L597.93 107.44C597.834 108.01 597.899 108.595 598.118 109.13C598.336 109.665 598.7 110.128 599.168 110.467C599.636 110.806 600.19 111.007 600.766 111.049C601.342 111.09 601.919 110.969 602.43 110.7L634.11 94.0899L665.79 110.7C666.233 110.935 666.729 111.056 667.23 111.05C667.884 111.049 668.521 110.843 669.05 110.46C669.515 110.124 669.876 109.666 670.094 109.136C670.311 108.605 670.376 108.025 670.28 107.46L664.22 72.2999L689.86 47.4199C690.274 47.0182 690.567 46.5084 690.705 45.9485C690.843 45.3886 690.821 44.8012 690.642 44.2531C690.463 43.705 690.133 43.2182 689.691 42.8482C689.249 42.4781 688.711 42.2396 688.14 42.1599ZM658.72 68.9999C658.36 69.35 658.091 69.7825 657.936 70.2599C657.781 70.7373 657.745 71.2453 657.83 71.7399L663.11 102.31L635.55 87.8699C635.103 87.6401 634.608 87.5202 634.105 87.5202C633.603 87.5202 633.107 87.6401 632.66 87.8699L605.1 102.32L610.38 71.7499C610.466 71.2553 610.429 70.7473 610.274 70.2699C610.119 69.7925 609.85 69.36 609.49 69.0099L587.17 47.3699L618 42.9199C618.496 42.8476 618.968 42.6561 619.373 42.3618C619.779 42.0674 620.108 41.679 620.33 41.2299L634.11 13.3999L647.88 41.2299C648.103 41.679 648.431 42.0674 648.837 42.3618C649.243 42.6561 649.714 42.8476 650.21 42.9199L681 47.3699L658.72 68.9999Z" fill="#333333"/>
<path d="M636.66 26.7C636.424 26.2261 636.06 25.8276 635.609 25.549C635.159 25.2704 634.64 25.1228 634.11 25.1228C633.581 25.1228 633.062 25.2704 632.611 25.549C632.161 25.8276 631.797 26.2261 631.56 26.7L622.11 45.78L601 48.84C600.477 48.9153 599.985 49.1357 599.581 49.4761C599.176 49.8166 598.875 50.2635 598.712 50.7663C598.548 51.2691 598.529 51.8076 598.656 52.3208C598.783 52.834 599.051 53.3014 599.43 53.67L614.73 68.51L611.11 89.51C611.018 90.034 611.075 90.5734 611.274 91.0667C611.474 91.56 611.808 91.9873 612.238 92.3C612.669 92.6128 613.178 92.7982 613.709 92.8354C614.24 92.8725 614.77 92.7597 615.24 92.51L634.15 82.6L653 92.47C653.407 92.6853 653.86 92.7986 654.32 92.8C654.734 92.8031 655.144 92.7153 655.52 92.5428C655.897 92.3703 656.231 92.1172 656.499 91.8016C656.767 91.486 656.962 91.1154 657.071 90.716C657.18 90.3166 657.2 89.8981 657.13 89.49L653.51 68.49L668.81 53.65C669.189 53.2808 669.458 52.8126 669.584 52.2986C669.71 51.7847 669.69 51.2456 669.526 50.7425C669.361 50.2395 669.059 49.7927 668.653 49.4528C668.247 49.113 667.754 48.8937 667.23 48.82L646.1 45.78L636.66 26.7ZM648.48 65.5C648.15 65.8202 647.902 66.2161 647.76 66.6535C647.617 67.0909 647.583 67.5565 647.66 68.01L650.55 84.78L635.43 76.85C635.021 76.6378 634.566 76.5271 634.105 76.5271C633.644 76.5271 633.19 76.6378 632.78 76.85L617.65 84.78L620.55 68C620.63 67.5473 620.598 67.082 620.457 66.6445C620.316 66.207 620.07 65.8107 619.74 65.49L607.49 53.62L624.4 51.18C624.856 51.1119 625.289 50.9357 625.663 50.666C626.037 50.3964 626.342 50.0411 626.55 49.63L634.11 34.36L641.66 49.63C641.868 50.0399 642.171 50.3943 642.543 50.6639C642.915 50.9335 643.346 51.1104 643.8 51.18L660.72 53.62L648.48 65.5Z" fill="#333333"/>
<path d="M81.2602 202.57V157.86C81.2594 157.236 81.0958 156.622 80.7854 156.08C80.4749 155.538 80.0285 155.087 79.4902 154.77C78.9506 154.458 78.3384 154.294 77.7152 154.294C77.0921 154.294 76.4799 154.458 75.9402 154.77L56.8002 165.69L38.5002 154.78C37.9578 154.466 37.3421 154.3 36.7152 154.3C36.0884 154.3 35.4726 154.466 34.9302 154.78C34.3841 155.095 33.9303 155.549 33.6144 156.094C33.2986 156.64 33.1316 157.259 33.1302 157.89V202.6C27.4352 207.511 23.3791 214.047 21.5063 221.33C19.6335 228.613 20.0337 236.295 22.6533 243.343C25.2728 250.392 29.9862 256.471 36.1608 260.764C42.3353 265.056 49.6752 267.357 57.1952 267.357C64.7152 267.357 72.0552 265.056 78.2297 260.764C84.4042 256.471 89.1176 250.392 91.7372 243.343C94.3567 236.295 94.757 228.613 92.8842 221.33C91.0114 214.047 86.9552 207.511 81.2602 202.6V202.57ZM74.1402 197.71C71.9349 196.551 69.616 195.623 67.2202 194.94V167.31L74.1402 164.01V197.71ZM58.5202 171.45L60.1002 170.69V193.69C59.1002 193.62 58.1702 193.57 57.1902 193.57C56.2102 193.57 55.0202 193.63 53.9502 193.72V170.93L54.9502 171.42C55.49 171.739 56.1043 171.91 56.7312 171.915C57.3581 171.92 57.9752 171.76 58.5202 171.45ZM40.2502 164.14L46.8402 167.4V195C44.561 195.671 42.3536 196.565 40.2502 197.67V164.14ZM57.1902 260.51C51.2675 260.544 45.468 258.818 40.5271 255.552C35.5861 252.286 31.726 247.627 29.4361 242.164C27.1462 236.702 26.5295 230.683 27.6644 224.87C28.7992 219.057 31.6343 213.711 35.8105 209.511C39.9866 205.311 45.3157 202.446 51.1223 201.278C56.9288 200.11 62.9514 200.692 68.4267 202.951C73.9019 205.21 78.5833 209.043 81.8774 213.965C85.1716 218.888 86.9301 224.677 86.9302 230.6C86.9462 238.508 83.8234 246.099 78.2475 251.707C72.6716 257.315 65.0983 260.481 57.1902 260.51Z" fill="#333333"/>
<path d="M54.9098 213.18L43.5498 245.76H49.2298L52.0698 237.18H62.8098L65.6498 245.76H71.3298L59.9998 213.18H54.9098ZM53.6998 232.24L57.4398 220.85L61.1798 232.24H53.6998Z" fill="#333333"/>
<path d="M249.74 168.46C248.923 168.487 248.115 168.632 247.34 168.89L216 178.35C213.479 179.026 210.888 179.405 208.28 179.48H164.88C162.702 179.454 160.599 180.273 159.012 181.765C157.426 183.256 156.478 185.305 156.37 187.48H147.48C146.963 187.469 146.448 187.561 145.967 187.75C145.485 187.94 145.046 188.222 144.674 188.582C144.302 188.942 144.005 189.371 143.8 189.847C143.595 190.322 143.486 190.833 143.48 191.35V220.35C143.488 220.867 143.598 221.377 143.803 221.852C144.008 222.326 144.305 222.756 144.677 223.115C145.048 223.475 145.487 223.757 145.968 223.947C146.449 224.136 146.963 224.229 147.48 224.22H156.36C156.456 226.407 157.399 228.47 158.989 229.974C160.579 231.479 162.691 232.305 164.88 232.28H166.31V250.15C166.323 251.042 166.69 251.892 167.329 252.515C167.968 253.137 168.828 253.481 169.72 253.47H180.16C180.602 253.477 181.041 253.396 181.452 253.232C181.863 253.069 182.237 252.826 182.554 252.518C182.871 252.209 183.124 251.841 183.298 251.435C183.472 251.029 183.565 250.592 183.57 250.15V232.31H208.28C210.894 232.386 213.491 232.762 216.02 233.43L247.39 242.75C248.158 242.986 248.957 243.107 249.76 243.11C250.705 243.127 251.645 242.951 252.521 242.595C253.396 242.239 254.191 241.708 254.856 241.037C255.522 240.365 256.044 239.565 256.392 238.685C256.74 237.806 256.906 236.865 256.88 235.92V175.7C256.913 174.749 256.751 173.801 256.405 172.914C256.06 172.028 255.536 171.221 254.868 170.543C254.2 169.866 253.4 169.331 252.519 168.973C251.637 168.615 250.692 168.44 249.74 168.46ZM156.31 216.46H149.31V195.2H156.31V216.46ZM177.71 246.81H172.09V232.31H177.71V246.81ZM197.24 224.52H164.84C164.693 224.518 164.552 224.46 164.446 224.357C164.341 224.255 164.278 224.117 164.27 223.97V187.78C164.275 187.631 164.337 187.49 164.443 187.386C164.549 187.282 164.691 187.222 164.84 187.22H197.24V224.52ZM209.38 224.52H208.24H204.06V187.22H208.24H209.38V224.52ZM249.88 231.01C249.871 231.488 249.75 231.958 249.528 232.381C249.306 232.805 248.988 233.171 248.6 233.45C248.212 233.73 247.764 233.915 247.292 233.991C246.82 234.068 246.336 234.033 245.88 233.89L218.3 226C217.68 225.82 216.96 225.64 216.2 225.48V186.27C216.96 186.11 217.69 185.93 218.31 185.74L245.91 177.69C246.366 177.545 246.849 177.509 247.321 177.583C247.793 177.658 248.242 177.842 248.63 178.121C249.019 178.4 249.337 178.766 249.559 179.189C249.781 179.612 249.901 180.082 249.91 180.56L249.88 231.01Z" fill="#333333"/>
<path d="M383.13 197.63C376.946 195.436 370.211 195.344 363.97 197.37C361.91 177.98 345.63 162.79 325.97 162.79H325.71C304.71 162.93 287.66 180.43 287.8 201.79C287.842 210.846 291.023 219.607 296.8 226.58C300.066 230.695 303.878 234.345 308.13 237.43L308.36 237.6C310.66 239.4 328.7 251.74 329.47 252.27C329.984 252.619 330.589 252.807 331.21 252.81C331.649 252.811 332.082 252.715 332.48 252.53C332.966 252.311 333.387 251.972 333.706 251.545C334.024 251.118 334.229 250.618 334.3 250.09L336.14 236.85C340.327 235.618 344.315 233.79 347.98 231.42C349.71 237.47 354.64 242 357.77 244.42L351.54 254.35C351.19 254.907 351.02 255.558 351.054 256.215C351.088 256.872 351.324 257.503 351.73 258.02C352.018 258.393 352.388 258.695 352.811 258.903C353.234 259.111 353.699 259.219 354.17 259.22C354.512 259.215 354.85 259.151 355.17 259.03L378.34 250.69C378.34 250.69 381.26 249.57 381.76 249.36C391.26 245.47 396.69 240.63 399.39 233.62C401.931 226.644 401.619 218.947 398.52 212.2C397.043 208.876 394.922 205.878 392.281 203.377C389.64 200.877 386.53 198.923 383.13 197.63ZM332.89 231.19C332.241 231.313 331.648 231.636 331.193 232.116C330.739 232.595 330.448 233.205 330.36 233.86L328.92 244.19C322.68 239.9 313.68 233.69 312.26 232.59L312.03 232.41C308.126 229.598 304.633 226.256 301.65 222.48C296.802 216.651 294.127 209.321 294.08 201.74C293.97 183.87 308.2 169.24 325.8 169.12H326C343.49 169.12 357.81 183.56 357.93 201.29C358 226.18 333.91 231 332.89 231.19ZM393.7 231.33C392.27 235.04 389.47 239.33 379.56 243.45L376.33 244.7L361.76 250L364.76 245.22C364.988 244.86 365.14 244.457 365.209 244.036C365.278 243.616 365.262 243.185 365.161 242.771C365.06 242.357 364.877 241.967 364.623 241.625C364.368 241.283 364.048 240.996 363.68 240.78C363.58 240.72 353.68 234.78 353.68 227.08C360.025 221.033 363.76 212.749 364.09 203.99C364.395 203.971 364.695 203.907 364.98 203.8C370.133 201.889 375.792 201.836 380.98 203.65C386.296 205.688 390.604 209.725 392.981 214.898C395.358 220.071 395.616 225.969 393.7 231.33Z" fill="#333333"/>
<path d="M372.73 210.14L364.66 234.71H368.66L370.66 228.24H378.28L380.28 234.71H384.28L376.21 210.14H372.73ZM371.87 224.51L374.52 215.92L377.18 224.51H371.87Z" fill="#333333"/>
<path d="M341.33 200.17C341.33 187.64 334.4 180.65 325.6 180.65C316.8 180.65 309.88 187.65 309.88 200.17C309.88 212.69 316.82 219.68 325.6 219.68C328.453 219.712 331.253 218.913 333.66 217.38L338.3 222.08L341.72 217.96L337.52 213.68C339.91 210.39 341.33 205.85 341.33 200.17ZM333.42 209.51L330 206L326.54 210.17L329.54 213.25C328.319 213.826 326.98 214.11 325.63 214.08C319.43 214.08 315.63 208.81 315.63 200.21C315.63 191.61 319.39 186.33 325.63 186.33C331.87 186.33 335.63 191.6 335.63 200.21C335.745 203.452 334.981 206.666 333.42 209.51Z" fill="#333333"/>
<path d="M545.22 186.44C543.988 182.617 541.572 179.285 538.322 176.925C535.073 174.565 531.156 173.299 527.14 173.31C525.305 173.31 523.48 173.572 521.72 174.09C518.968 174.883 516.436 176.298 514.319 178.227C512.201 180.155 510.556 182.544 509.51 185.21L461.19 177.3C460.804 175.323 460.008 173.449 458.855 171.797C457.701 170.145 456.215 168.753 454.492 167.71C452.769 166.667 450.847 165.995 448.849 165.739C446.851 165.482 444.821 165.646 442.89 166.22C441.101 166.72 439.43 167.572 437.973 168.724C436.516 169.877 435.304 171.308 434.405 172.934C433.507 174.56 432.942 176.348 432.742 178.195C432.542 180.041 432.711 181.91 433.24 183.69C434.108 186.396 435.757 188.784 437.979 190.555C440.202 192.326 442.899 193.399 445.73 193.64L451.8 225.1C448.498 226.944 445.925 229.861 444.506 233.367C443.088 236.873 442.909 240.759 444 244.38C445.118 247.858 447.314 250.891 450.269 253.039C453.224 255.187 456.786 256.34 460.44 256.33C462.109 256.33 463.769 256.091 465.37 255.62C467.671 255.012 469.813 253.913 471.649 252.398C473.485 250.884 474.971 248.989 476.005 246.845C477.039 244.702 477.596 242.359 477.638 239.98C477.681 237.6 477.207 235.239 476.25 233.06L514.83 205.62C517.249 207.669 520.14 209.084 523.242 209.738C526.343 210.393 529.559 210.266 532.6 209.37C534.945 208.71 537.135 207.591 539.043 206.076C540.951 204.562 542.539 202.683 543.713 200.549C544.888 198.415 545.626 196.068 545.885 193.646C546.143 191.224 545.917 188.774 545.22 186.44ZM449.14 186.58C448.449 186.788 447.731 186.892 447.01 186.89C445.434 186.893 443.897 186.395 442.623 185.468C441.348 184.54 440.402 183.231 439.92 181.73C439.648 180.811 439.561 179.847 439.666 178.894C439.771 177.941 440.065 177.018 440.53 176.18C440.996 175.342 441.624 174.605 442.378 174.013C443.131 173.421 443.996 172.984 444.92 172.73C445.612 172.528 446.329 172.424 447.05 172.42C448.626 172.417 450.163 172.915 451.437 173.843C452.712 174.77 453.658 176.079 454.14 177.58C454.412 178.499 454.499 179.464 454.394 180.416C454.289 181.369 453.995 182.292 453.53 183.13C453.064 183.968 452.436 184.705 451.682 185.297C450.929 185.89 450.064 186.326 449.14 186.58ZM463.33 249.1C462.378 249.379 461.392 249.52 460.4 249.52C458.233 249.526 456.12 248.842 454.367 247.568C452.614 246.293 451.312 244.494 450.65 242.43C450.273 241.169 450.152 239.845 450.292 238.537C450.433 237.228 450.833 235.96 451.469 234.808C452.104 233.655 452.964 232.641 453.996 231.824C455.028 231.007 456.212 230.404 457.48 230.05C458.432 229.772 459.418 229.631 460.41 229.63C462.578 229.627 464.691 230.311 466.445 231.585C468.199 232.859 469.503 234.657 470.17 236.72C470.545 237.982 470.665 239.306 470.523 240.615C470.381 241.923 469.98 243.191 469.344 244.343C468.707 245.495 467.848 246.509 466.815 247.326C465.783 248.143 464.598 248.746 463.33 249.1ZM472.22 227.47C469.006 224.493 464.791 222.834 460.41 222.82C459.765 222.825 459.121 222.865 458.48 222.94L452.63 192.58C454.488 191.816 456.162 190.666 457.541 189.206C458.921 187.746 459.974 186.009 460.63 184.11L508.26 191.91C508.275 193.642 508.538 195.363 509.04 197.02C509.4 198.151 509.865 199.246 510.43 200.29L472.22 227.47ZM530.55 202.85C527.553 203.736 524.329 203.417 521.563 201.962C518.797 200.508 516.708 198.031 515.74 195.06C515.301 193.586 515.161 192.04 515.327 190.511C515.493 188.982 515.962 187.501 516.707 186.156C517.452 184.811 518.458 183.627 519.665 182.675C520.873 181.723 522.258 181.021 523.74 180.61C524.851 180.284 526.002 180.119 527.16 180.12C529.692 180.112 532.16 180.91 534.208 182.398C536.256 183.887 537.777 185.989 538.55 188.4C538.989 189.874 539.129 191.421 538.963 192.95C538.797 194.478 538.328 195.959 537.583 197.304C536.838 198.65 535.832 199.833 534.625 200.785C533.417 201.738 532.032 202.439 530.55 202.85Z" fill="#333333"/>
<path d="M724.62 59.29H739V104.41C738.995 104.905 739.087 105.396 739.272 105.856C739.456 106.315 739.73 106.734 740.076 107.088C740.422 107.441 740.835 107.724 741.29 107.918C741.746 108.112 742.235 108.215 742.73 108.22H765.21C766.211 108.209 767.167 107.802 767.868 107.088C768.569 106.374 768.958 105.411 768.95 104.41V76.52H786.31V104.41C786.302 105.409 786.69 106.371 787.389 107.085C788.088 107.799 789.041 108.207 790.04 108.22H812.53C813.529 108.207 814.482 107.799 815.181 107.085C815.88 106.371 816.268 105.409 816.26 104.41V59.29H830.59C831.591 59.2795 832.547 58.8725 833.248 58.1582C833.949 57.444 834.338 56.4809 834.33 55.48C834.323 54.8981 834.183 54.3255 833.922 53.8057C833.66 53.2859 833.283 52.8325 832.82 52.48L780 7.07004C779.334 6.48903 778.479 6.16895 777.595 6.16895C776.711 6.16895 775.857 6.48903 775.19 7.07004L722.22 52.58C721.632 53.0881 721.213 53.7625 721.016 54.5142C720.82 55.2659 720.856 56.0594 721.12 56.79C721.375 57.5163 721.848 58.1461 722.475 58.5935C723.101 59.0409 723.85 59.2842 724.62 59.29ZM777.62 14.95L820.36 51.68H812.52C811.521 51.6906 810.567 52.0962 809.866 52.8083C809.165 53.5204 808.775 54.481 808.78 55.48V100.61H793.78V72.71C793.786 71.711 793.395 70.7504 792.694 70.0383C791.993 69.3262 791.039 68.9206 790.04 68.91H765.16C764.162 68.9206 763.209 69.3266 762.51 70.0389C761.81 70.7513 761.422 71.7119 761.43 72.71V100.61H746.43V55.48C746.438 54.4819 746.05 53.5213 745.351 52.8089C744.652 52.0966 743.698 51.6906 742.7 51.68H734.86L777.62 14.95Z" fill="#333333"/>
<path d="M344.54 0.500001C333.325 0.498023 322.362 3.82174 313.037 10.0508C303.711 16.2799 296.442 25.1345 292.149 35.4949C287.856 45.8553 286.732 57.2561 288.918 68.2555C291.105 79.2549 296.504 89.3588 304.434 97.2894C312.363 105.22 322.466 110.621 333.465 112.81C344.464 114.998 355.865 113.876 366.226 109.585C376.587 105.294 385.443 98.0264 391.674 88.7019C397.904 79.3774 401.23 68.4146 401.23 57.2C401.214 42.1688 395.237 27.7577 384.609 17.1281C373.981 6.49853 359.571 0.51853 344.54 0.500001ZM344.54 107.3C334.628 107.302 324.939 104.365 316.697 98.8591C308.455 93.3537 302.03 85.5277 298.236 76.3709C294.442 67.2141 293.449 57.1378 295.382 47.4165C297.316 37.6952 302.088 28.7655 309.097 21.7569C316.106 14.7483 325.035 9.97555 334.757 8.04236C344.478 6.10918 354.554 7.10237 363.711 10.8963C372.868 14.6903 380.694 21.1145 386.199 29.3566C391.705 37.5987 394.642 47.2883 394.64 57.2C394.624 70.4825 389.341 83.2164 379.949 92.6085C370.556 102.001 357.823 107.284 344.54 107.3Z" fill="#333333"/>
<path d="M360.13 48.18H363.57C363.989 48.18 364.391 48.0135 364.687 47.7172C364.983 47.4209 365.15 47.019 365.15 46.6C365.142 43.754 364.008 41.0268 361.996 39.0144C359.983 37.002 357.256 35.8679 354.41 35.86H347.84V32C347.794 31.1575 347.426 30.3648 346.813 29.7848C346.2 29.2048 345.389 28.8816 344.545 28.8816C343.701 28.8816 342.889 29.2048 342.277 29.7848C341.664 30.3648 341.296 31.1575 341.25 32V35.86H334.67C333.26 35.86 331.864 36.1379 330.561 36.6777C329.259 37.2176 328.076 38.0088 327.079 39.0063C326.083 40.0037 325.292 41.1878 324.754 42.4907C324.215 43.7937 323.939 45.1901 323.94 46.6V49.76C323.939 51.1695 324.215 52.5653 324.754 53.8678C325.293 55.1702 326.083 56.3536 327.08 57.3502C328.076 58.3468 329.26 59.1371 330.562 59.6759C331.865 60.2147 333.261 60.4913 334.67 60.49H354.41C355.508 60.49 356.561 60.9262 357.337 61.7026C358.114 62.479 358.55 63.532 358.55 64.63V67.79C358.551 68.3345 358.445 68.8739 358.238 69.3774C358.03 69.8808 357.725 70.3384 357.341 70.7239C356.956 71.1094 356.499 71.4152 355.997 71.6239C355.494 71.8326 354.954 71.94 354.41 71.94H334.67C333.572 71.94 332.519 71.5038 331.743 70.7274C330.966 69.951 330.53 68.898 330.53 67.8C330.533 67.3878 330.374 66.9907 330.088 66.6937C329.803 66.3966 329.412 66.223 329 66.21H325.56C325.353 66.21 325.148 66.2509 324.957 66.3305C324.766 66.41 324.592 66.5265 324.446 66.6734C324.3 66.8202 324.185 66.9945 324.107 67.1861C324.028 67.3778 323.989 67.583 323.99 67.79C323.998 70.6333 325.131 73.358 327.141 75.3685C329.152 77.3791 331.877 78.5121 334.72 78.52H341.3V82.38C341.275 82.828 341.342 83.2763 341.497 83.6975C341.651 84.1188 341.89 84.5041 342.198 84.8299C342.507 85.1558 342.878 85.4153 343.29 85.5927C343.702 85.7701 344.146 85.8616 344.595 85.8616C345.044 85.8616 345.488 85.7701 345.9 85.5927C346.312 85.4153 346.683 85.1558 346.992 84.8299C347.3 84.5041 347.539 84.1188 347.693 83.6975C347.848 83.2763 347.915 82.828 347.89 82.38V78.53H354.46C357.299 78.5194 360.018 77.3843 362.021 75.3731C364.025 73.362 365.15 70.6389 365.15 67.8V64.63C365.139 61.7857 364.004 59.0611 361.992 57.0509C359.98 55.0406 357.254 53.9079 354.41 53.9H334.67C333.572 53.9 332.519 53.4638 331.743 52.6874C330.966 51.911 330.53 50.858 330.53 49.76V46.6C330.529 46.0555 330.635 45.5161 330.842 45.0126C331.05 44.5092 331.354 44.0516 331.739 43.6661C332.124 43.2806 332.58 42.9748 333.083 42.7661C333.586 42.5574 334.125 42.45 334.67 42.45H354.41C354.954 42.45 355.494 42.5574 355.997 42.7661C356.499 42.9748 356.956 43.2806 357.341 43.6661C357.725 44.0516 358.03 44.5092 358.238 45.0126C358.445 45.5161 358.551 46.0555 358.55 46.6C358.55 47.019 358.716 47.4209 359.013 47.7172C359.309 48.0135 359.711 48.18 360.13 48.18Z" fill="#333333"/>
<path d="M113.55 47.4501L113.15 45.1401L103.71 43.7801C102.708 40.3025 101.319 36.9482 99.57 33.7801L105.29 26.1301L103.94 24.2201C102.054 21.5511 99.9432 19.0486 97.63 16.7401C95.3252 14.426 92.8223 12.3179 90.15 10.4401L88.24 9.10007L86.37 10.5001C85.93 10.7801 84.68 11.7201 80.57 14.7901C77.4039 13.0366 74.0491 11.6477 70.57 10.6501L69.24 1.24007L66.94 0.830071C60.4874 -0.279946 53.8927 -0.279946 47.44 0.830071L45.14 1.24007L43.78 10.6801C40.2984 11.6704 36.9428 13.0596 33.78 14.8201L28 10.5001L26.14 9.10007L24.23 10.4501C18.8837 14.223 14.223 18.8837 10.45 24.2301L9.10004 26.1401L14.81 33.7901C13.0662 36.9597 11.681 40.3137 10.68 43.7901L1.23004 45.1401L0.830042 47.4501C-0.276681 53.8996 -0.276681 60.4905 0.830042 66.9401L1.23004 69.2401L10.68 70.6101C11.6794 74.0885 13.0682 77.4431 14.82 80.6101L9.10004 88.2401L10.45 90.1601C14.223 95.5064 18.8837 100.167 24.23 103.94L26.14 105.29L33.79 99.5701C36.9564 101.321 40.3112 102.706 43.79 103.7L45.15 113.16L47.46 113.56C53.9096 114.667 60.5005 114.667 66.95 113.56L69.25 113.16L70.62 103.71C74.0996 102.705 77.4543 101.31 80.62 99.5501C81.97 100.61 83.92 102.07 86.36 103.89L88.23 105.29L90.14 103.94C95.4864 100.164 100.15 95.5037 103.93 90.1601L105.27 88.2401L99.57 80.6001C101.322 77.4345 102.708 74.0795 103.7 70.6001L113.15 69.2301L113.55 66.9301C114.67 60.4817 114.67 53.8885 113.55 47.4401V47.4501ZM107.55 63.5501C99.16 64.7701 97.79 65.0001 97.88 67.4401C96.8757 71.4609 95.2782 75.3098 93.14 78.8601C91.6 80.5301 92.06 81.3001 97.29 88.3101C95.9846 89.9838 94.5786 91.5768 93.08 93.0801C91.581 94.5832 89.9878 95.9894 88.31 97.2901L81 91.8201L79.13 93.0001C75.4692 95.2688 71.4783 96.9555 67.3 98.0001C65.02 98.1401 64.81 99.0001 63.54 107.62C59.3227 108.14 55.0574 108.14 50.84 107.62L49.53 98.6201L47.41 98.0001C43.2035 96.9997 39.1786 95.3499 35.48 93.1101C33.75 91.6801 33.14 92.0301 26.08 97.2901C24.4023 95.9894 22.8091 94.5832 21.31 93.0801C19.8094 91.5787 18.4033 89.9857 17.1 88.3101C22.24 81.4101 22.39 81.0401 21.42 79.1301C19.1941 75.5068 17.535 71.5646 16.5 67.4401C16.6 65.0001 15.22 64.7701 6.84004 63.5501C6.30668 59.3302 6.30668 55.06 6.84004 50.8401C15.23 49.6201 16.6 49.3801 16.5 46.9501C17.5338 42.8251 19.193 38.8828 21.42 35.2601L22.56 33.3901L17.1 26.0801C19.7133 22.7168 22.7368 19.6933 26.1 17.0801C33 22.2201 33.37 22.3701 35.28 21.4001C38.9111 19.1731 42.8644 17.5203 47 16.5001C49.42 16.5801 49.67 15.2101 50.89 6.84007C55.1074 6.32007 59.3727 6.32007 63.59 6.84007C64.82 15.2701 65.02 16.4301 67.38 16.4801C71.4608 17.4847 75.3653 19.1031 78.96 21.2801C80.68 22.7101 81.4 22.2801 88.36 17.1001C91.7233 19.7133 94.7468 22.7368 97.36 26.1001C92.14 33.0001 92 33.3501 93 35.2601C95.2165 38.9025 96.8654 42.8612 97.89 47.0001C97.79 49.4401 99.16 49.6701 107.55 50.8901C108.07 55.1108 108.07 59.3793 107.55 63.6001V63.5501Z" fill="#333333"/>
<path d="M57.19 25.4399C50.9102 25.4498 44.7742 27.3212 39.5577 30.8175C34.3412 34.3137 30.2782 39.278 27.8823 45.0828C25.4864 50.8877 24.8652 57.2725 26.0971 63.4303C27.329 69.5881 30.3588 75.2425 34.8035 79.6788C39.2482 84.1151 44.9083 87.1342 51.0684 88.3545C57.2285 89.5748 63.6122 88.9415 69.4125 86.5347C75.2128 84.1278 80.1693 80.0555 83.6558 74.8324C87.1422 69.6092 89.002 63.4698 89 57.1899C88.9894 48.7622 85.6327 40.6835 79.6677 34.7298C73.7028 28.7761 65.6178 25.4346 57.19 25.4399ZM57.19 81.9599C52.2955 81.9501 47.5137 80.4898 43.4488 77.7635C39.3838 75.0373 36.218 71.1675 34.3514 66.6429C32.4847 62.1183 32.0009 57.142 32.9611 52.3426C33.9213 47.5432 36.2824 43.1361 39.7462 39.6779C43.2099 36.2198 47.6208 33.8658 52.4218 32.9133C57.2227 31.9609 62.1983 32.4527 66.7198 34.3266C71.2414 36.2006 75.1061 39.3726 77.8258 43.442C80.5454 47.5113 81.998 52.2954 82 57.1899C82.0026 60.4488 81.3627 63.6762 80.1168 66.6874C78.8709 69.6987 77.0435 72.4348 74.7392 74.7391C72.4348 77.0435 69.6988 78.8709 66.6875 80.1168C63.6762 81.3626 60.4488 82.0026 57.19 81.9999V81.9599Z" fill="#333333"/>
<path d="M57.1898 40.1399C53.8131 40.1399 50.5123 41.142 47.7055 43.0192C44.8988 44.8965 42.7122 47.5644 41.4227 50.6852C40.1333 53.8061 39.799 57.2393 40.4621 60.5503C41.1253 63.8612 42.756 66.9009 45.1479 69.2844C47.5398 71.6678 50.5852 73.2879 53.8985 73.9394C57.2117 74.5909 60.6438 74.2444 63.76 72.944C66.8763 71.6436 69.5365 69.4476 71.4039 66.6342C73.2712 63.8208 74.2617 60.5166 74.2498 57.1399C74.2313 52.6265 72.426 48.3042 69.229 45.1183C66.0319 41.9325 61.7032 40.1425 57.1898 40.1399ZM57.1898 67.2499C55.2001 67.2499 53.2551 66.6599 51.6007 65.5545C49.9464 64.4491 48.657 62.8779 47.8956 61.0397C47.1341 59.2015 46.9349 57.1787 47.3231 55.2273C47.7113 53.2758 48.6694 51.4833 50.0763 50.0764C51.4832 48.6695 53.2757 47.7114 55.2272 47.3232C57.1786 46.935 59.2014 47.1342 61.0396 47.8957C62.8778 48.6571 64.449 49.9465 65.5544 51.6009C66.6598 53.2552 67.2498 55.2002 67.2498 57.1899C67.2471 59.8572 66.1864 62.4144 64.3004 64.3005C62.4143 66.1865 59.857 67.2472 57.1898 67.2499Z" fill="#333333"/>
<path d="M446.68 113.89H532C532.353 113.894 532.703 113.828 533.03 113.696C533.358 113.565 533.656 113.37 533.907 113.123C534.159 112.876 534.36 112.581 534.497 112.256C534.635 111.932 534.707 111.583 534.71 111.23V111.1C534.71 111.1 534.71 111.03 534.71 111C534.71 110.97 534.71 110.93 534.71 110.9V11.5399C534.702 10.8282 534.412 10.1487 533.904 9.6501C533.397 9.15154 532.712 8.87459 532 8.87992H513.42H513.2V3.15992C513.197 2.80713 513.125 2.45832 512.987 2.13351C512.85 1.8087 512.649 1.51428 512.397 1.26715C512.146 1.02001 511.848 0.82502 511.52 0.69336C511.193 0.561701 510.843 0.495966 510.49 0.499925H468.15C467.798 0.497288 467.449 0.564001 467.123 0.696254C466.797 0.828506 466.5 1.02371 466.249 1.27071C465.998 1.51772 465.799 1.81169 465.662 2.13584C465.525 2.46 465.453 2.80798 465.45 3.15992V8.87992H446.68C445.973 8.8799 445.294 9.15951 444.792 9.65779C444.29 10.1561 444.005 10.8326 444 11.5399V111.23C444.005 111.937 444.29 112.614 444.792 113.112C445.294 113.61 445.973 113.89 446.68 113.89ZM471 8.59993C471.003 8.24713 471.075 7.89832 471.213 7.57351C471.35 7.2487 471.551 6.95429 471.803 6.70715C472.054 6.46001 472.352 6.26502 472.68 6.13336C473.007 6.0017 473.357 5.93597 473.71 5.93992H505C505.712 5.93459 506.397 6.21153 506.904 6.7101C507.412 7.20867 507.702 7.88823 507.71 8.59993V14.5999C507.702 15.3116 507.412 15.9912 506.904 16.4897C506.397 16.9883 505.712 17.2653 505 17.2599H473.7C473.348 17.2626 472.999 17.1958 472.673 17.0636C472.347 16.9313 472.05 16.7361 471.799 16.4891C471.548 16.2421 471.349 15.9482 471.212 15.624C471.075 15.2999 471.003 14.9519 471 14.5999V8.59993ZM449.51 16.9999C449.518 16.2882 449.808 15.6087 450.316 15.1101C450.823 14.6115 451.508 14.3346 452.22 14.3399H465.45V19.9999C465.453 20.3519 465.525 20.6999 465.662 21.024C465.799 21.3482 465.998 21.6421 466.249 21.8891C466.5 22.1361 466.797 22.3313 467.123 22.4636C467.449 22.5958 467.798 22.6626 468.15 22.6599H510.49C510.843 22.6639 511.193 22.5981 511.52 22.4665C511.848 22.3348 512.146 22.1398 512.397 21.8927C512.649 21.6456 512.85 21.3511 512.987 21.0263C513.125 20.7015 513.197 20.3527 513.2 19.9999V14.2999H513.42H526.42C526.772 14.2973 527.121 14.364 527.447 14.4963C527.773 14.6285 528.07 14.8237 528.321 15.0707C528.572 15.3177 528.771 15.6117 528.908 15.9358C529.045 16.26 529.117 16.608 529.12 16.9599V108.43H452.22C451.508 108.435 450.823 108.158 450.316 107.66C449.808 107.161 449.518 106.482 449.51 105.77V16.9999Z" fill="#333333"/>
<path d="M465 65.86H465.92C466.625 65.86 467.302 65.5798 467.801 65.0809C468.3 64.5821 468.58 63.9055 468.58 63.2C468.58 62.4946 468.3 61.818 467.801 61.3191C467.302 60.8203 466.625 60.54 465.92 60.54H465C464.294 60.54 463.618 60.8203 463.119 61.3191C462.62 61.818 462.34 62.4946 462.34 63.2C462.34 63.9055 462.62 64.5821 463.119 65.0809C463.618 65.5798 464.294 65.86 465 65.86Z" fill="#333333"/>
<path d="M465 82.1501H465.92C466.269 82.1501 466.615 82.0813 466.938 81.9476C467.261 81.8139 467.554 81.618 467.801 81.371C468.048 81.124 468.244 80.8307 468.377 80.508C468.511 80.1853 468.58 79.8394 468.58 79.4901C468.58 79.1408 468.511 78.7949 468.377 78.4721C468.244 78.1494 468.048 77.8562 467.801 77.6092C467.554 77.3622 467.261 77.1662 466.938 77.0326C466.615 76.8989 466.269 76.8301 465.92 76.8301H465C464.651 76.8301 464.305 76.8989 463.982 77.0326C463.659 77.1662 463.366 77.3622 463.119 77.6092C462.872 77.8562 462.676 78.1494 462.542 78.4721C462.409 78.7949 462.34 79.1408 462.34 79.4901C462.34 79.8394 462.409 80.1853 462.542 80.508C462.676 80.8307 462.872 81.124 463.119 81.371C463.366 81.618 463.659 81.8139 463.982 81.9476C464.305 82.0813 464.651 82.1501 465 82.1501Z" fill="#333333"/>
<path d="M478.94 65.86H513.68C514.385 65.86 515.062 65.5798 515.561 65.0809C516.06 64.5821 516.34 63.9055 516.34 63.2C516.34 62.4946 516.06 61.818 515.561 61.3191C515.062 60.8203 514.385 60.54 513.68 60.54H478.94C478.234 60.54 477.558 60.8203 477.059 61.3191C476.56 61.818 476.28 62.4946 476.28 63.2C476.28 63.9055 476.56 64.5821 477.059 65.0809C477.558 65.5798 478.234 65.86 478.94 65.86Z" fill="#333333"/>
<path d="M478.94 82.1501H513.68C514.029 82.1501 514.375 82.0813 514.698 81.9476C515.02 81.8139 515.314 81.618 515.561 81.371C515.808 81.124 516.004 80.8307 516.137 80.508C516.271 80.1853 516.34 79.8394 516.34 79.4901C516.34 79.1408 516.271 78.7949 516.137 78.4721C516.004 78.1494 515.808 77.8562 515.561 77.6092C515.314 77.3622 515.02 77.1662 514.698 77.0326C514.375 76.8989 514.029 76.8301 513.68 76.8301H478.94C478.59 76.8301 478.245 76.8989 477.922 77.0326C477.599 77.1662 477.306 77.3622 477.059 77.6092C476.812 77.8562 476.616 78.1494 476.482 78.4721C476.349 78.7949 476.28 79.1408 476.28 79.4901C476.28 79.8394 476.349 80.1853 476.482 80.508C476.616 80.8307 476.812 81.124 477.059 81.371C477.306 81.618 477.599 81.8139 477.922 81.9476C478.245 82.0813 478.59 82.1501 478.94 82.1501Z" fill="#333333"/>
<path d="M465 49.11H465.92C466.625 49.11 467.302 48.8298 467.801 48.3309C468.3 47.8321 468.58 47.1555 468.58 46.45C468.58 45.7446 468.3 45.068 467.801 44.5691C467.302 44.0703 466.625 43.79 465.92 43.79H465C464.294 43.79 463.618 44.0703 463.119 44.5691C462.62 45.068 462.34 45.7446 462.34 46.45C462.34 47.1555 462.62 47.8321 463.119 48.3309C463.618 48.8298 464.294 49.11 465 49.11Z" fill="#333333"/>
<path d="M478.94 49.11H513.68C514.385 49.11 515.062 48.8298 515.561 48.3309C516.06 47.8321 516.34 47.1555 516.34 46.45C516.34 45.7446 516.06 45.068 515.561 44.5691C515.062 44.0703 514.385 43.79 513.68 43.79H478.94C478.234 43.79 477.558 44.0703 477.059 44.5691C476.56 45.068 476.28 45.7446 476.28 46.45C476.28 47.1555 476.56 47.8321 477.059 48.3309C477.558 48.8298 478.234 49.11 478.94 49.11Z" fill="#333333"/>
<path d="M249.67 17.51H150.67C146.67 17.51 143.5 21.07 143.5 25.43V89C143.5 93.37 146.71 96.92 150.67 96.92H249.67C253.67 96.92 256.84 93.37 256.84 89V25.43C256.84 21.07 253.62 17.51 249.67 17.51ZM250.15 89C250.15 89.1313 250.101 89.2578 250.012 89.3543C249.923 89.4507 249.801 89.5099 249.67 89.52H150.67C150.538 89.5123 150.415 89.4538 150.325 89.3568C150.236 89.2598 150.187 89.1319 150.19 89V46H250.19L250.15 89ZM250.15 40.31H150.15V25.43C150.147 25.2981 150.196 25.1702 150.285 25.0732C150.375 24.9762 150.498 24.9177 150.63 24.91H249.63C249.761 24.9201 249.883 24.9793 249.972 25.0758C250.061 25.1722 250.11 25.2988 250.11 25.43L250.15 40.31Z" fill="#333333"/>
<path d="M175.63 73.6201H224.63C225.686 73.5175 226.666 73.0255 227.379 72.2398C228.092 71.4541 228.487 70.4311 228.487 69.3701C228.487 68.3091 228.092 67.2861 227.379 66.5004C226.666 65.7147 225.686 65.2227 224.63 65.1201H175.63C174.574 65.2227 173.594 65.7147 172.881 66.5004C172.168 67.2861 171.773 68.3091 171.773 69.3701C171.773 70.4311 172.168 71.4541 172.881 72.2398C173.594 73.0255 174.574 73.5175 175.63 73.6201Z" fill="#333333"/>
<path d="M824.85 209.46C827.229 207.036 828.564 203.776 828.57 200.38V198.27C828.621 196.36 828.288 194.459 827.592 192.679C826.896 190.899 825.85 189.277 824.517 187.908C823.183 186.539 821.589 185.451 819.828 184.708C818.068 183.965 816.176 183.582 814.265 183.582C812.354 183.582 810.462 183.965 808.702 184.708C806.941 185.451 805.347 186.539 804.013 187.908C802.68 189.277 801.635 190.899 800.938 192.679C800.242 194.459 799.91 196.36 799.96 198.27V200.38C799.961 203.052 800.785 205.658 802.321 207.845C803.856 210.031 806.028 211.692 808.54 212.6L810.35 213.26C811.375 213.622 812.445 213.838 813.53 213.9H817.42C820.244 213.905 822.95 215.031 824.945 217.029C826.94 219.028 828.06 221.736 828.06 224.56V249H805.33V255.22H834.28V224.59C834.277 221.439 833.392 218.352 831.725 215.679C830.059 213.005 827.677 210.851 824.85 209.46ZM822.35 200.38C822.349 201.772 821.92 203.131 821.12 204.27C820.32 205.41 819.189 206.276 817.88 206.75L816.07 207.4C815.518 207.597 814.937 207.702 814.35 207.71H814.19C813.601 207.705 813.017 207.603 812.46 207.41L810.65 206.75C809.342 206.274 808.212 205.408 807.412 204.269C806.612 203.13 806.182 201.772 806.18 200.38V198.27C806.142 197.184 806.323 196.102 806.712 195.088C807.101 194.074 807.69 193.148 808.445 192.367C809.199 191.585 810.104 190.963 811.104 190.539C812.104 190.114 813.179 189.896 814.265 189.896C815.351 189.896 816.427 190.114 817.427 190.539C818.427 190.963 819.331 191.585 820.085 192.367C820.84 193.148 821.429 194.074 821.818 195.088C822.207 196.102 822.388 197.184 822.35 198.27V200.38Z" fill="#333333"/>
<path d="M737.75 213.93H741.64C742.726 213.869 743.797 213.65 744.82 213.28L746.62 212.63C749.135 211.723 751.308 210.064 752.845 207.877C754.383 205.69 755.208 203.083 755.21 200.41V198.3C755.261 196.39 754.928 194.489 754.232 192.709C753.536 190.929 752.49 189.307 751.157 187.938C749.823 186.569 748.229 185.481 746.469 184.738C744.708 183.995 742.816 183.612 740.905 183.612C738.994 183.612 737.102 183.995 735.342 184.738C733.581 185.481 731.987 186.569 730.654 187.938C729.32 189.307 728.275 190.929 727.578 192.709C726.882 194.489 726.55 196.39 726.6 198.3V200.41C726.606 203.806 727.942 207.066 730.32 209.49C727.493 210.881 725.111 213.035 723.445 215.709C721.778 218.382 720.893 221.469 720.89 224.62V255.27H749.89V249H727.11V224.59C727.11 221.766 728.23 219.058 730.225 217.059C732.22 215.061 734.926 213.935 737.75 213.93ZM732.82 198.27C732.782 197.184 732.963 196.102 733.352 195.088C733.741 194.074 734.33 193.148 735.085 192.367C735.839 191.585 736.744 190.964 737.744 190.539C738.744 190.114 739.819 189.896 740.905 189.896C741.991 189.896 743.067 190.114 744.067 190.539C745.067 190.964 745.971 191.585 746.725 192.367C747.48 193.148 748.069 194.074 748.458 195.088C748.847 196.102 749.028 197.184 748.99 198.27V200.38C748.989 201.772 748.56 203.131 747.76 204.27C746.96 205.41 745.829 206.276 744.52 206.75L742.71 207.4C742.154 207.597 741.57 207.702 740.98 207.71H740.82C740.234 207.705 739.653 207.603 739.1 207.41L737.29 206.75C735.981 206.276 734.85 205.41 734.05 204.27C733.251 203.131 732.821 201.772 732.82 200.38V198.27Z" fill="#333333"/>
<path d="M802.82 213.88H802.71C802.286 210.23 800.871 206.765 798.618 203.862C796.365 200.958 793.361 198.727 789.93 197.41C791.529 195.929 792.805 194.133 793.678 192.135C794.55 190.137 795 187.98 795 185.8V183.1C795.056 180.773 794.645 178.458 793.793 176.291C792.941 174.125 791.664 172.15 790.038 170.485C788.412 168.819 786.469 167.495 784.323 166.591C782.178 165.688 779.873 165.222 777.545 165.222C775.217 165.222 772.912 165.688 770.767 166.591C768.622 167.495 766.678 168.819 765.052 170.485C763.426 172.15 762.149 174.125 761.297 176.291C760.445 178.458 760.034 180.773 760.09 183.1V185.8C760.095 187.983 760.551 190.141 761.43 192.14C762.31 194.138 763.593 195.932 765.2 197.41C761.685 198.759 758.619 201.068 756.351 204.073C754.083 207.078 752.704 210.66 752.37 214.41H752.27V256.3H802.78V216.91V216.17C802.78 215.97 802.78 215.77 802.78 215.56L802.82 213.88ZM766.34 183.1C766.34 180.119 767.524 177.26 769.632 175.152C771.74 173.044 774.599 171.86 777.58 171.86C780.561 171.86 783.42 173.044 785.528 175.152C787.636 177.26 788.82 180.119 788.82 183.1V185.8C788.82 187.767 788.215 189.686 787.086 191.296C785.957 192.907 784.359 194.13 782.51 194.8L780.2 195.64C779.441 195.909 778.645 196.058 777.84 196.08H777.33C776.525 196.059 775.729 195.91 774.97 195.64L772.66 194.8C770.811 194.129 769.212 192.906 768.082 191.296C766.951 189.686 766.343 187.767 766.34 185.8V183.1ZM796.6 250.1H758.52V216.9V216.16C758.52 212.484 759.978 208.958 762.575 206.356C765.171 203.754 768.694 202.288 772.37 202.28H782.75C786.323 202.287 789.756 203.673 792.333 206.149C794.909 208.625 796.431 212 796.58 215.57L796.6 250.1Z" fill="#333333"/>
<path d="M661.68 239C660.758 239.005 659.875 239.375 659.225 240.029C658.575 240.683 658.21 241.568 658.21 242.49V260.67H592.85V161.27H658.21V179.45C658.21 180.37 658.576 181.253 659.226 181.904C659.877 182.554 660.76 182.92 661.68 182.92C662.6 182.92 663.483 182.554 664.134 181.904C664.784 181.253 665.15 180.37 665.15 179.45V157.78C665.153 156.856 664.789 155.969 664.138 155.313C663.488 154.657 662.604 154.285 661.68 154.28H589.39C588.932 154.281 588.479 154.373 588.057 154.55C587.634 154.726 587.251 154.985 586.929 155.31C586.606 155.635 586.351 156.021 586.178 156.444C586.005 156.868 585.917 157.322 585.92 157.78V264.18C585.919 264.637 586.007 265.09 586.181 265.513C586.355 265.935 586.61 266.32 586.932 266.644C587.254 266.968 587.637 267.225 588.059 267.401C588.481 267.577 588.933 267.669 589.39 267.67H661.68C662.602 267.665 663.485 267.295 664.135 266.641C664.785 265.987 665.15 265.102 665.15 264.18V242.5C665.153 241.576 664.789 240.689 664.138 240.033C663.488 239.377 662.604 239.005 661.68 239Z" fill="#333333"/>
<path d="M682.33 208.64L662.19 188.36C661.864 187.998 661.468 187.706 661.025 187.501C660.582 187.297 660.103 187.185 659.616 187.173C659.129 187.16 658.644 187.246 658.191 187.427C657.739 187.607 657.328 187.878 656.983 188.223C656.638 188.567 656.367 188.979 656.187 189.431C656.006 189.884 655.92 190.369 655.933 190.856C655.945 191.343 656.057 191.822 656.261 192.265C656.466 192.708 656.758 193.104 657.12 193.43L670.98 207.43H622.51C621.558 207.43 620.645 207.808 619.971 208.481C619.298 209.155 618.92 210.068 618.92 211.02C618.92 211.972 619.298 212.885 619.971 213.558C620.645 214.232 621.558 214.61 622.51 214.61H671L657.15 228.61C656.483 229.287 656.109 230.199 656.109 231.15C656.109 232.1 656.483 233.013 657.15 233.69C657.482 234.023 657.876 234.287 658.31 234.468C658.744 234.648 659.21 234.741 659.68 234.741C660.15 234.741 660.616 234.648 661.05 234.468C661.484 234.287 661.878 234.023 662.21 233.69L682.35 213.4C682.667 213.089 682.918 212.718 683.089 212.309C683.26 211.899 683.347 211.459 683.345 211.016C683.343 210.572 683.253 210.133 683.078 209.725C682.904 209.317 682.649 208.948 682.33 208.64Z" fill="#333333"/>
<path d="M880.91 70.1399C878.932 70.1399 876.999 69.5534 875.354 68.4546C873.71 67.3558 872.428 65.794 871.671 63.9667C870.914 62.1395 870.716 60.1288 871.102 58.189C871.488 56.2492 872.441 54.4674 873.839 53.0688C875.238 51.6703 877.019 50.7179 878.959 50.332C880.899 49.9462 882.91 50.1442 884.737 50.9011C886.564 51.658 888.126 52.9397 889.225 54.5842C890.324 56.2287 890.91 58.1621 890.91 60.1399C890.91 62.7921 889.857 65.3356 887.981 67.211C886.106 69.0863 883.562 70.1399 880.91 70.1399ZM880.91 55.6099C880.012 55.6079 879.134 55.8723 878.386 56.3695C877.638 56.8667 877.055 57.5745 876.71 58.4033C876.364 59.2321 876.272 60.1447 876.445 61.0258C876.619 61.9068 877.049 62.7167 877.683 63.3531C878.316 63.9894 879.124 64.4236 880.005 64.6007C880.885 64.7778 881.798 64.6899 882.628 64.3481C883.459 64.0063 884.169 63.426 884.669 62.6805C885.17 61.935 885.438 61.0578 885.44 60.1599C885.44 58.9566 884.964 57.8023 884.115 56.9496C883.266 56.0969 882.113 55.6152 880.91 55.6099Z" fill="#333333"/>
<path d="M912 49.74C910.022 49.74 908.089 49.1535 906.444 48.0547C904.8 46.9559 903.518 45.3941 902.761 43.5668C902.004 41.7396 901.806 39.7289 902.192 37.7891C902.578 35.8493 903.53 34.0675 904.929 32.6689C906.327 31.2704 908.109 30.318 910.049 29.9321C911.989 29.5463 914 29.7443 915.827 30.5012C917.654 31.2581 919.216 32.5398 920.315 34.1843C921.414 35.8288 922 37.7622 922 39.74C922 42.3922 920.946 44.9357 919.071 46.8111C917.196 48.6864 914.652 49.74 912 49.74ZM912 35.21C911.102 35.21 910.224 35.4763 909.478 35.9751C908.731 36.474 908.149 37.183 907.806 38.0126C907.462 38.8422 907.372 39.755 907.547 40.6357C907.722 41.5164 908.155 42.3253 908.79 42.9603C909.425 43.5952 910.234 44.0276 911.114 44.2028C911.995 44.3779 912.908 44.288 913.737 43.9444C914.567 43.6008 915.276 43.0189 915.775 42.2723C916.274 41.5257 916.54 40.6479 916.54 39.75C916.54 38.5459 916.062 37.3911 915.21 36.5397C914.359 35.6883 913.204 35.21 912 35.21Z" fill="#333333"/>
<path d="M943.17 22.1399C941.192 22.1399 939.259 21.5534 937.614 20.4546C935.97 19.3558 934.688 17.794 933.931 15.9667C933.174 14.1395 932.976 12.1288 933.362 10.189C933.748 8.24918 934.7 6.46735 936.099 5.06883C937.497 3.6703 939.279 2.7179 941.219 2.33204C943.159 1.94619 945.17 2.14423 946.997 2.9011C948.824 3.65798 950.386 4.9397 951.485 6.58419C952.583 8.22869 953.17 10.1621 953.17 12.1399C953.17 14.7921 952.116 17.3356 950.241 19.211C948.366 21.0863 945.822 22.1399 943.17 22.1399ZM943.17 7.5999C942.272 7.5999 941.394 7.86616 940.648 8.36502C939.901 8.86389 939.319 9.57294 938.976 10.4025C938.632 11.2321 938.542 12.1449 938.717 13.0256C938.892 13.9063 939.325 14.7152 939.96 15.3502C940.595 15.9851 941.404 16.4175 942.284 16.5927C943.165 16.7678 944.078 16.6779 944.907 16.3343C945.737 15.9907 946.446 15.4088 946.945 14.6622C947.444 13.9156 947.71 13.0378 947.71 12.1399C947.71 10.9358 947.232 9.78105 946.38 8.92963C945.529 8.07822 944.374 7.5999 943.17 7.5999Z" fill="#333333"/>
<path d="M974.3 42.8198C972.322 42.8198 970.389 42.2333 968.745 41.1345C967.1 40.0357 965.818 38.4739 965.062 36.6467C964.305 34.8194 964.107 32.8087 964.492 30.8689C964.878 28.9291 965.831 27.1473 967.229 25.7488C968.628 24.3502 970.41 23.3978 972.349 23.012C974.289 22.6261 976.3 22.8242 978.127 23.581C979.954 24.3379 981.516 25.6196 982.615 27.2641C983.714 28.9086 984.3 30.842 984.3 32.8198C984.3 35.472 983.247 38.0155 981.371 39.8909C979.496 41.7663 976.952 42.8198 974.3 42.8198ZM974.3 28.2898C973.402 28.2898 972.525 28.5561 971.778 29.055C971.031 29.5538 970.45 30.2629 970.106 31.0924C969.762 31.922 969.672 32.8349 969.848 33.7155C970.023 34.5962 970.455 35.4052 971.09 36.0401C971.725 36.675 972.534 37.1074 973.415 37.2826C974.295 37.4578 975.208 37.3679 976.038 37.0242C976.867 36.6806 977.576 36.0987 978.075 35.3521C978.574 34.6055 978.84 33.7278 978.84 32.8298C978.84 31.6257 978.362 30.471 977.511 29.6196C976.659 28.7681 975.504 28.2898 974.3 28.2898Z" fill="#333333"/>
<path d="M904.983 41.9L885.228 53.2417L887.941 57.9682L907.697 46.6264L904.983 41.9Z" fill="#333333"/>
<path d="M935.45 14.5184L915.952 33.4399L919.747 37.3511L939.245 18.4295L935.45 14.5184Z" fill="#333333"/>
<path d="M950.724 13.8889L947.706 18.4272L966.734 31.0789L969.751 26.5405L950.724 13.8889Z" fill="#333333"/>
<path d="M890.91 115.53H870.91V75.5298H890.91V115.53ZM876.36 110.07H885.44V80.9998H876.36V110.07Z" fill="#333333"/>
<path d="M922 115.53H902V55.4099H922V115.53ZM907.46 110.07H916.55V60.8599H907.46V110.07Z" fill="#333333"/>
<path d="M953.16 115.53H933.16V30.1399H953.16V115.53ZM938.63 110.07H947.71V35.5599H938.63V110.07Z" fill="#333333"/>
<path d="M984.3 115.53H964.3V49.0798H984.3V115.53ZM969.76 110.07H978.84V54.5398H969.76V110.07Z" fill="#333333"/>
<path d="M986.28 261.21H882.67C880.109 261.239 877.641 260.251 875.807 258.463C873.973 256.674 872.924 254.231 872.89 251.67V173.45C872.895 173.062 872.977 172.679 873.131 172.323C873.285 171.967 873.508 171.645 873.786 171.375C874.065 171.106 874.395 170.894 874.756 170.753C875.117 170.611 875.502 170.542 875.89 170.55C876.665 170.549 877.411 170.849 877.97 171.386C878.529 171.923 878.859 172.655 878.89 173.43V251.65C878.888 252.146 878.983 252.638 879.17 253.098C879.358 253.558 879.634 253.976 879.983 254.329C880.332 254.682 880.747 254.962 881.205 255.155C881.663 255.347 882.154 255.447 882.65 255.45H980.32V179.59C980.32 178.794 980.636 178.031 981.199 177.469C981.761 176.906 982.524 176.59 983.32 176.59C984.116 176.59 984.879 176.906 985.441 177.469C986.004 178.031 986.32 178.794 986.32 179.59L986.28 261.21Z" fill="#333333"/>
<path d="M983.3 182.45H882.14C879.753 182.45 877.464 181.502 875.776 179.814C874.088 178.126 873.14 175.837 873.14 173.45C873.14 171.063 874.088 168.774 875.776 167.086C877.464 165.398 879.753 164.45 882.14 164.45H983.3V170.26H882.14C881.289 170.26 880.472 170.598 879.87 171.2C879.268 171.802 878.93 172.619 878.93 173.47C878.93 174.321 879.268 175.138 879.87 175.74C880.472 176.342 881.289 176.68 882.14 176.68H983.3V182.45Z" fill="#333333"/>
<path d="M986.28 228H963.89C961.105 228.122 958.386 227.133 956.331 225.25C954.275 223.367 953.052 220.745 952.93 217.96C952.808 215.175 953.797 212.456 955.68 210.401C957.563 208.345 960.185 207.122 962.97 207H986.29L986.28 228ZM963.89 212.79C962.645 212.732 961.427 213.17 960.506 214.01C959.584 214.849 959.033 216.02 958.975 217.265C958.917 218.51 959.355 219.728 960.195 220.649C961.034 221.571 962.205 222.122 963.45 222.18H980.33V212.79H963.89Z" fill="#333333"/>
<path d="M932.82 233.73H915.4C914.433 233.743 913.473 233.566 912.575 233.207C911.677 232.849 910.859 232.316 910.166 231.641C909.474 230.966 908.922 230.16 908.542 229.271C908.162 228.382 907.961 227.427 907.95 226.46V224.14H913.95V226.46C913.953 226.653 913.993 226.843 914.07 227.02C914.146 227.196 914.257 227.356 914.395 227.49C914.534 227.624 914.698 227.729 914.877 227.799C915.056 227.87 915.248 227.904 915.44 227.9H932.82C933.012 227.903 933.202 227.868 933.38 227.797C933.559 227.726 933.721 227.62 933.858 227.487C933.996 227.353 934.106 227.193 934.181 227.017C934.257 226.841 934.298 226.652 934.3 226.46V221.8C934.292 221.414 934.133 221.046 933.856 220.776C933.579 220.507 933.207 220.357 932.82 220.36H915.4C913.45 220.384 911.57 219.633 910.173 218.272C908.776 216.91 907.977 215.05 907.95 213.1V208.46C907.979 206.511 908.78 204.654 910.176 203.295C911.573 201.936 913.452 201.186 915.4 201.21H932.82C934.766 201.191 936.641 201.943 938.035 203.301C939.429 204.66 940.229 206.514 940.26 208.46V210.76H934.26V208.46C934.252 208.074 934.093 207.706 933.816 207.436C933.539 207.167 933.167 207.017 932.78 207.02H915.4C915.207 207.015 915.015 207.047 914.835 207.116C914.654 207.185 914.489 207.289 914.349 207.422C914.209 207.555 914.096 207.714 914.017 207.89C913.939 208.067 913.895 208.257 913.89 208.45V213.14C913.893 213.332 913.933 213.521 914.009 213.697C914.085 213.873 914.194 214.033 914.332 214.167C914.469 214.3 914.632 214.406 914.81 214.477C914.988 214.548 915.178 214.583 915.37 214.58H932.82C934.768 214.561 936.644 215.314 938.038 216.675C939.432 218.035 940.231 219.892 940.26 221.84V226.45C940.25 227.417 940.049 228.372 939.669 229.261C939.29 230.15 938.739 230.955 938.048 231.631C937.357 232.307 936.54 232.84 935.643 233.201C934.746 233.561 933.787 233.741 932.82 233.73Z" fill="#333333"/>
<path d="M927.09 196.3H921.13V204.06H927.09V196.3Z" fill="#333333"/>
<path d="M927.09 230.83H921.13V238.59H927.09V230.83Z" fill="#333333"/>
</g>
<defs>
<clipPath id="clip0_325_2">
<rect width="986.32" height="267.67" fill="white"/>
</clipPath>
</defs>
</svg>
