<svg id="레이어_1" data-name="레이어 1" xmlns="http://www.w3.org/2000/svg" viewBox="0 0 986.32 267.67"><defs><style>.cls-1{fill:#fff;}</style></defs><path class="cls-1" d="M688.14,42.16,652.71,37l-15.83-32a3.1,3.1,0,0,0-5.55,0L615.5,37l-35.43,5.12a3.08,3.08,0,0,0-1.72,5.26L604,72.3l-6.07,35.14a3.1,3.1,0,0,0,4.5,3.26l31.68-16.61,31.68,16.61a3,3,0,0,0,1.44.35,3.11,3.11,0,0,0,1.82-.59,3.07,3.07,0,0,0,1.23-3L664.22,72.3l25.64-24.88a3.08,3.08,0,0,0-1.72-5.26ZM658.72,69a3.09,3.09,0,0,0-.89,2.74l5.28,30.57L635.55,87.87a3.16,3.16,0,0,0-2.89,0L605.1,102.32l5.28-30.57a3.09,3.09,0,0,0-.89-2.74L587.17,47.37,618,42.92a3.1,3.1,0,0,0,2.33-1.69L634.11,13.4l13.77,27.83a3.1,3.1,0,0,0,2.33,1.69L681,47.37Z"/><path class="cls-1" d="M636.66,26.7a2.85,2.85,0,0,0-5.1,0l-9.45,19.08L601,48.84a2.83,2.83,0,0,0-1.57,4.83l15.3,14.84-3.62,21a2.84,2.84,0,0,0,4.13,3l18.91-9.91L653,92.47a2.84,2.84,0,0,0,1.32.33,2.83,2.83,0,0,0,2.81-3.31l-3.62-21,15.3-14.84a2.83,2.83,0,0,0-1.58-4.83L646.1,45.78Zm11.82,38.8a2.83,2.83,0,0,0-.82,2.51l2.89,16.77-15.12-7.93a2.88,2.88,0,0,0-2.65,0l-15.13,7.93L620.55,68a2.82,2.82,0,0,0-.81-2.51L607.49,53.62l16.91-2.44a2.89,2.89,0,0,0,2.15-1.55l7.56-15.27,7.55,15.27a2.89,2.89,0,0,0,2.14,1.55l16.92,2.44Z"/><path class="cls-1" d="M81.26,202.57V157.86a3.59,3.59,0,0,0-1.77-3.09,3.55,3.55,0,0,0-3.55,0L56.8,165.69,38.5,154.78a3.56,3.56,0,0,0-3.57,0,3.6,3.6,0,0,0-1.8,3.11v44.71a36.85,36.85,0,1,0,48.13,0Zm-7.12-4.86a36.23,36.23,0,0,0-6.92-2.77V167.31l6.92-3.3ZM58.52,171.45l1.58-.76v23c-1-.07-1.93-.12-2.91-.12s-2.17.06-3.24.15V170.93l1,.49A3.56,3.56,0,0,0,58.52,171.45Zm-18.27-7.31,6.59,3.26V195a36.09,36.09,0,0,0-6.59,2.67Zm16.94,96.37A29.91,29.91,0,1,1,86.93,230.6,29.85,29.85,0,0,1,57.19,260.51Z"/><path class="cls-1" d="M54.91,213.18,43.55,245.76h5.68l2.84-8.58H62.81l2.84,8.58h5.68L60,213.18ZM53.7,232.24l3.74-11.39,3.74,11.39Z"/><path class="cls-1" d="M249.74,168.46a8.49,8.49,0,0,0-2.4.43L216,178.35a33.56,33.56,0,0,1-7.72,1.13h-43.4a8.42,8.42,0,0,0-8.51,8h-8.89a3.92,3.92,0,0,0-4,3.87v29a3.93,3.93,0,0,0,4,3.87h8.88a8.43,8.43,0,0,0,8.52,8.06h1.43v17.87a3.37,3.37,0,0,0,3.41,3.32h10.44a3.36,3.36,0,0,0,3.41-3.32V232.31h24.71a34.19,34.19,0,0,1,7.74,1.12l31.37,9.32a8.17,8.17,0,0,0,2.37.36,7,7,0,0,0,7.12-7.19V175.7A7,7,0,0,0,249.74,168.46Zm-93.43,48h-7V195.2h7Zm21.4,30.35h-5.62V232.31h5.62Zm19.53-22.29h-32.4a.58.58,0,0,1-.57-.55V187.78a.58.58,0,0,1,.57-.56h32.4Zm12.14,0-1.14,0h-4.18V187.22h4.18l1.14,0Zm40.5,6.49a3.08,3.08,0,0,1-4,2.88L218.3,226c-.62-.18-1.34-.36-2.1-.52V186.27c.76-.16,1.49-.34,2.11-.53l27.6-8.05a3.07,3.07,0,0,1,4,2.87Z"/><path class="cls-1" d="M383.13,197.63a29.79,29.79,0,0,0-19.16-.26c-2.06-19.39-18.34-34.58-38-34.58h-.26c-21,.14-38.05,17.64-37.91,39a39.14,39.14,0,0,0,9,24.79,57.83,57.83,0,0,0,11.33,10.85l.23.17c2.3,1.8,20.34,14.14,21.11,14.67a3.13,3.13,0,0,0,1.74.54,3,3,0,0,0,1.27-.28,3.14,3.14,0,0,0,1.82-2.44l1.84-13.24a45.41,45.41,0,0,0,11.84-5.43c1.73,6.05,6.66,10.58,9.79,13l-6.23,9.93a3.19,3.19,0,0,0,.19,3.67,3.09,3.09,0,0,0,2.44,1.2,2.94,2.94,0,0,0,1-.19l23.17-8.34s2.92-1.12,3.42-1.33c9.5-3.89,14.93-8.73,17.63-15.74a28.2,28.2,0,0,0-.87-21.42A27.57,27.57,0,0,0,383.13,197.63Zm-50.24,33.56a3.14,3.14,0,0,0-2.53,2.67l-1.44,10.33c-6.24-4.29-15.24-10.5-16.66-11.6l-.23-.18a51.86,51.86,0,0,1-10.38-9.93,32.75,32.75,0,0,1-7.57-20.74c-.11-17.87,14.12-32.5,31.72-32.62H326c17.49,0,31.81,14.44,31.93,32.17C358,226.18,333.91,231,332.89,231.19Zm60.81.14c-1.43,3.71-4.23,8-14.14,12.12l-3.23,1.25L361.76,250l3-4.78a3.18,3.18,0,0,0-1.08-4.44c-.1-.06-10-6-10-13.7v0a33.65,33.65,0,0,0,10.41-23.09,3.08,3.08,0,0,0,.89-.19,23.61,23.61,0,0,1,16-.15A21.79,21.79,0,0,1,393.7,231.33Z"/><path class="cls-1" d="M372.73,210.14l-8.07,24.57h4l2-6.47h7.62l2,6.47h4l-8.07-24.57Zm-.86,14.37,2.65-8.59,2.66,8.59Z"/><path class="cls-1" d="M341.33,200.17c0-12.53-6.93-19.52-15.73-19.52s-15.72,7-15.72,19.52,6.94,19.51,15.72,19.51a14.7,14.7,0,0,0,8.06-2.3l4.64,4.7,3.42-4.12-4.2-4.28C339.91,210.39,341.33,205.85,341.33,200.17Zm-7.91,9.34L330,206l-3.46,4.17,3,3.08a8.7,8.7,0,0,1-3.91.83c-6.2,0-10-5.27-10-13.87s3.76-13.88,10-13.88,10,5.27,10,13.88A18,18,0,0,1,333.42,209.51Z"/><path class="cls-1" d="M545.22,186.44a18.94,18.94,0,0,0-18.08-13.13,19.2,19.2,0,0,0-5.42.78,18.67,18.67,0,0,0-12.21,11.12l-48.32-7.91a14.45,14.45,0,0,0-18.3-11.08,14,14,0,0,0-9.65,17.47,14.4,14.4,0,0,0,12.49,9.95l6.07,31.46A16.6,16.6,0,0,0,444,244.38a17.22,17.22,0,0,0,16.44,11.95,17.49,17.49,0,0,0,4.93-.71,16.48,16.48,0,0,0,10.88-22.56l38.58-27.44a19.13,19.13,0,0,0,17.77,3.75A18.36,18.36,0,0,0,545.22,186.44Zm-96.08.14a7.32,7.32,0,0,1-2.13.31,7.43,7.43,0,0,1-7.09-5.16,7.21,7.21,0,0,1,5-9,7.73,7.73,0,0,1,2.13-.31,7.43,7.43,0,0,1,7.09,5.16A7.21,7.21,0,0,1,449.14,186.58Zm14.19,62.52a10.43,10.43,0,0,1-2.93.42,10.21,10.21,0,0,1-9.75-7.09,9.91,9.91,0,0,1,6.83-12.38,10.48,10.48,0,0,1,2.93-.42,10.24,10.24,0,0,1,9.76,7.09A9.92,9.92,0,0,1,463.33,249.1Zm8.89-21.63a17.46,17.46,0,0,0-11.81-4.65,17.85,17.85,0,0,0-1.93.12l-5.85-30.36a14.16,14.16,0,0,0,8-8.47l47.63,7.8a18.16,18.16,0,0,0,.78,5.11,18.9,18.9,0,0,0,1.39,3.27Zm58.33-24.62a12,12,0,0,1-14.81-7.79,11.57,11.57,0,0,1,8-14.45,12.09,12.09,0,0,1,3.42-.49,11.92,11.92,0,0,1,11.39,8.28A11.57,11.57,0,0,1,530.55,202.85Z"/><path class="cls-1" d="M724.62,59.29H739v45.12a3.77,3.77,0,0,0,3.73,3.81h22.48a3.78,3.78,0,0,0,3.74-3.81V76.52h17.36v27.89a3.78,3.78,0,0,0,3.73,3.81h22.49a3.78,3.78,0,0,0,3.73-3.81V59.29h14.33a3.78,3.78,0,0,0,3.74-3.81,3.83,3.83,0,0,0-1.51-3L780,7.07a3.66,3.66,0,0,0-4.81,0L722.22,52.58a3.84,3.84,0,0,0-1.1,4.21A3.74,3.74,0,0,0,724.62,59.29Zm53-44.34,42.74,36.73h-7.84a3.78,3.78,0,0,0-3.74,3.8v45.13h-15V72.71a3.78,3.78,0,0,0-3.74-3.8H765.16a3.77,3.77,0,0,0-3.73,3.8v27.9h-15V55.48a3.77,3.77,0,0,0-3.73-3.8h-7.84Z"/><path class="cls-1" d="M344.54.5a56.7,56.7,0,1,0,56.69,56.7A56.76,56.76,0,0,0,344.54.5Zm0,106.8a50.11,50.11,0,1,1,50.1-50.1A50.16,50.16,0,0,1,344.54,107.3Z"/><path class="cls-1" d="M360.13,48.18h3.44a1.58,1.58,0,0,0,1.58-1.58,10.77,10.77,0,0,0-10.74-10.74h-6.57V32a3.3,3.3,0,0,0-6.59,0v3.86h-6.58A10.73,10.73,0,0,0,323.94,46.6v3.16a10.72,10.72,0,0,0,10.73,10.73h19.74a4.14,4.14,0,0,1,4.14,4.14v3.16a4.14,4.14,0,0,1-4.14,4.15H334.67a4.14,4.14,0,0,1-4.14-4.14h0A1.58,1.58,0,0,0,329,66.21h-3.44a1.57,1.57,0,0,0-1.57,1.58h0a10.76,10.76,0,0,0,10.73,10.73h6.58v3.86a3.3,3.3,0,1,0,6.59,0V78.53h6.57A10.73,10.73,0,0,0,365.15,67.8V64.63A10.77,10.77,0,0,0,354.41,53.9H334.67a4.14,4.14,0,0,1-4.14-4.14V46.6a4.14,4.14,0,0,1,4.14-4.15h19.74a4.14,4.14,0,0,1,4.14,4.15h0A1.58,1.58,0,0,0,360.13,48.18Z"/><path class="cls-1" d="M113.55,47.45l-.4-2.31-9.44-1.36a48.41,48.41,0,0,0-4.14-10l5.72-7.65-1.35-1.91a57.2,57.2,0,0,0-6.31-7.48,56,56,0,0,0-7.48-6.3L88.24,9.1l-1.87,1.4,0,0c-.44.28-1.69,1.22-5.8,4.29a47.88,47.88,0,0,0-10-4.14L69.24,1.24,66.94.83a57.51,57.51,0,0,0-19.5,0l-2.3.41-1.36,9.44a47,47,0,0,0-10,4.14L28,10.5,26.14,9.1l-1.91,1.35A57.31,57.31,0,0,0,10.45,24.23L9.1,26.14l5.71,7.65a48.7,48.7,0,0,0-4.13,10L1.23,45.14l-.4,2.31a57.62,57.62,0,0,0,0,19.49l.4,2.3,9.45,1.37a48.1,48.1,0,0,0,4.14,10L9.1,88.24l1.35,1.92a57.31,57.31,0,0,0,13.78,13.78l1.91,1.35,7.65-5.72a47.83,47.83,0,0,0,10,4.13l1.36,9.46,2.31.4a57.62,57.62,0,0,0,19.49,0l2.3-.4,1.37-9.45a48,48,0,0,0,10-4.16c1.35,1.06,3.3,2.52,5.74,4.34l1.87,1.4,1.91-1.35a57.59,57.59,0,0,0,13.79-13.78l1.34-1.92L99.57,80.6a47.61,47.61,0,0,0,4.13-10l9.45-1.37.4-2.3a56.95,56.95,0,0,0,0-19.49Zm-6,16.1c-8.39,1.22-9.76,1.45-9.67,3.89a41.74,41.74,0,0,1-4.74,11.42c-1.54,1.67-1.08,2.44,4.15,9.45a52.43,52.43,0,0,1-4.21,4.77,50,50,0,0,1-4.77,4.21L81,91.82,79.13,93a41.62,41.62,0,0,1-11.83,5c-2.28.14-2.49,1-3.76,9.62a51.89,51.89,0,0,1-12.7,0l-1.31-9L47.41,98a41.62,41.62,0,0,1-11.93-4.89c-1.73-1.43-2.34-1.08-9.4,4.18a50,50,0,0,1-4.77-4.21,51.29,51.29,0,0,1-4.21-4.77c5.14-6.9,5.29-7.27,4.32-9.18A41.74,41.74,0,0,1,16.5,67.44c.1-2.44-1.28-2.67-9.66-3.89a50.68,50.68,0,0,1,0-12.71c8.39-1.22,9.76-1.46,9.66-3.89a41.66,41.66,0,0,1,4.92-11.69l1.14-1.87L17.1,26.08a51.11,51.11,0,0,1,9-9c6.9,5.14,7.27,5.29,9.18,4.32A41.37,41.37,0,0,1,47,16.5c2.42.08,2.67-1.29,3.89-9.66a51.89,51.89,0,0,1,12.7,0c1.23,8.43,1.43,9.59,3.79,9.64a41.51,41.51,0,0,1,11.58,4.8c1.72,1.43,2.44,1,9.4-4.18a51.11,51.11,0,0,1,9,9C92.14,33,92,33.35,93,35.26A42,42,0,0,1,97.89,47c-.1,2.44,1.27,2.67,9.66,3.89a52,52,0,0,1,0,12.71Z"/><path class="cls-1" d="M57.19,25.44A31.76,31.76,0,1,0,89,57.19,31.79,31.79,0,0,0,57.19,25.44Zm0,56.52A24.76,24.76,0,1,1,82,57.19,24.79,24.79,0,0,1,57.19,82Z"/><path class="cls-1" d="M57.19,40.14a17.06,17.06,0,1,0,17.06,17A17.07,17.07,0,0,0,57.19,40.14Zm0,27.11A10.06,10.06,0,1,1,67.25,57.19,10.07,10.07,0,0,1,57.19,67.25Z"/><path class="cls-1" d="M446.68,113.89H532a2.68,2.68,0,0,0,2.71-2.66v-.13s0-.07,0-.1,0-.07,0-.1V11.54A2.69,2.69,0,0,0,532,8.88H513.42l-.22,0V3.16A2.68,2.68,0,0,0,510.49.5H468.15a2.68,2.68,0,0,0-2.7,2.66V8.88H446.68A2.68,2.68,0,0,0,444,11.54v99.69A2.68,2.68,0,0,0,446.68,113.89ZM471,8.6a2.68,2.68,0,0,1,2.71-2.66H505a2.69,2.69,0,0,1,2.71,2.66v6A2.69,2.69,0,0,1,505,17.26H473.7A2.68,2.68,0,0,1,471,14.6ZM449.51,17a2.69,2.69,0,0,1,2.71-2.66h13.23V20a2.68,2.68,0,0,0,2.7,2.66h42.34A2.68,2.68,0,0,0,513.2,20V14.3l.22,0h13a2.68,2.68,0,0,1,2.7,2.66v91.47H452.22a2.69,2.69,0,0,1-2.71-2.66Z"/><path class="cls-1" d="M465,65.86h.92a2.66,2.66,0,1,0,0-5.32H465a2.66,2.66,0,1,0,0,5.32Z"/><path class="cls-1" d="M465,82.15h.92a2.66,2.66,0,1,0,0-5.32H465a2.66,2.66,0,1,0,0,5.32Z"/><path class="cls-1" d="M478.94,65.86h34.74a2.66,2.66,0,1,0,0-5.32H478.94a2.66,2.66,0,1,0,0,5.32Z"/><path class="cls-1" d="M478.94,82.15h34.74a2.66,2.66,0,1,0,0-5.32H478.94a2.66,2.66,0,1,0,0,5.32Z"/><path class="cls-1" d="M465,49.11h.92a2.66,2.66,0,1,0,0-5.32H465a2.66,2.66,0,1,0,0,5.32Z"/><path class="cls-1" d="M478.94,49.11h34.74a2.66,2.66,0,1,0,0-5.32H478.94a2.66,2.66,0,1,0,0,5.32Z"/><path class="cls-1" d="M249.67,17.51h-99c-4,0-7.17,3.56-7.17,7.92V89c0,4.37,3.21,7.92,7.17,7.92h99c4,0,7.17-3.55,7.17-7.92V25.43C256.84,21.07,253.62,17.51,249.67,17.51ZM250.15,89a.52.52,0,0,1-.48.52h-99a.51.51,0,0,1-.48-.52v-43h100Zm0-48.69h-100V25.43a.51.51,0,0,1,.48-.52h99a.52.52,0,0,1,.48.52Z"/><path class="cls-1" d="M175.63,73.62h49a4.27,4.27,0,0,0,0-8.5h-49a4.27,4.27,0,0,0,0,8.5Z"/><path class="cls-1" d="M824.85,209.46a13,13,0,0,0,3.72-9.08v-2.11a14.31,14.31,0,1,0-28.61,0v2.11a13,13,0,0,0,8.58,12.22l1.81.66a11.52,11.52,0,0,0,3.18.64v0h3.89a10.66,10.66,0,0,1,10.64,10.66V249H805.33v6.22h28.95V224.59A16.88,16.88,0,0,0,824.85,209.46Zm-2.5-9.08a6.78,6.78,0,0,1-4.47,6.37l-1.81.65a5.33,5.33,0,0,1-1.72.31h-.16a5.43,5.43,0,0,1-1.73-.3l-1.81-.66a6.79,6.79,0,0,1-4.47-6.37v-2.11a8.09,8.09,0,1,1,16.17,0Z"/><path class="cls-1" d="M737.75,213.93h3.89v0a11.18,11.18,0,0,0,3.18-.65l1.8-.65a13,13,0,0,0,8.59-12.22v-2.11a14.31,14.31,0,1,0-28.61,0v2.11a13,13,0,0,0,3.72,9.08,16.88,16.88,0,0,0-9.43,15.13v30.65h29V249H727.11V224.59A10.66,10.66,0,0,1,737.75,213.93Zm-4.93-15.66a8.09,8.09,0,1,1,16.17,0v2.11a6.78,6.78,0,0,1-4.47,6.37l-1.81.65a5.39,5.39,0,0,1-1.73.31h-.16a5.37,5.37,0,0,1-1.72-.3l-1.81-.66a6.78,6.78,0,0,1-4.47-6.37Z"/><path class="cls-1" d="M802.82,213.88h-.11a20.13,20.13,0,0,0-12.78-16.47A15.82,15.82,0,0,0,795,185.8v-2.7a17.46,17.46,0,1,0-34.91,0v2.7a15.82,15.82,0,0,0,5.11,11.61,20.12,20.12,0,0,0-12.83,17h-.1v41.89h50.51V216.91h0v-.74c0-.2,0-.4,0-.61ZM766.34,183.1a11.24,11.24,0,1,1,22.48,0v2.7a9.57,9.57,0,0,1-6.31,9l-2.31.84a7.69,7.69,0,0,1-2.36.44h-.51a7.64,7.64,0,0,1-2.36-.44l-2.31-.84a9.59,9.59,0,0,1-6.32-9Zm30.26,67H758.52v-33.2h0v-.74a13.88,13.88,0,0,1,13.85-13.88h10.38a13.87,13.87,0,0,1,13.83,13.29Z"/><path class="cls-1" d="M661.68,239a3.49,3.49,0,0,0-3.47,3.49v18.18H592.85V161.27h65.36v18.18a3.47,3.47,0,1,0,6.94,0V157.78a3.49,3.49,0,0,0-3.47-3.5H589.39a3.48,3.48,0,0,0-3.47,3.5v106.4a3.48,3.48,0,0,0,3.47,3.49h72.29a3.49,3.49,0,0,0,3.47-3.49V242.5A3.49,3.49,0,0,0,661.68,239Z"/><path class="cls-1" d="M682.33,208.64l-20.14-20.28a3.59,3.59,0,1,0-5.07,5.07l13.86,14H622.51a3.59,3.59,0,0,0,0,7.18H671l-13.85,14a3.62,3.62,0,0,0,0,5.08,3.57,3.57,0,0,0,5.06,0l20.14-20.29A3.32,3.32,0,0,0,682.33,208.64Z"/><g id="레이어_2" data-name="레이어 2"><g id="레이어_1-2" data-name="레이어 1-2"><path class="cls-1" d="M880.91,70.14a10,10,0,1,1,10-10A10,10,0,0,1,880.91,70.14Zm0-14.53a4.54,4.54,0,1,0,4.53,4.55v0a4.55,4.55,0,0,0-4.53-4.55Z"/><path class="cls-1" d="M912,49.74a10,10,0,1,1,10-10A10,10,0,0,1,912,49.74Zm0-14.53a4.54,4.54,0,1,0,4.54,4.54A4.54,4.54,0,0,0,912,35.21Z"/><path class="cls-1" d="M943.17,22.14a10,10,0,1,1,10-10A10,10,0,0,1,943.17,22.14Zm0-14.54a4.54,4.54,0,1,0,4.54,4.54,4.54,4.54,0,0,0-4.54-4.54Z"/><path class="cls-1" d="M974.3,42.82a10,10,0,1,1,10-10A10,10,0,0,1,974.3,42.82Zm0-14.53a4.54,4.54,0,1,0,4.54,4.54A4.54,4.54,0,0,0,974.3,28.29Z"/><rect class="cls-1" x="885.07" y="47.21" width="22.78" height="5.45" transform="translate(94.15 452.96) rotate(-29.86)"/><rect class="cls-1" x="914.02" y="23.21" width="27.17" height="5.45" transform="translate(243.85 653.32) rotate(-44.14)"/><rect class="cls-1" x="956.01" y="11.06" width="5.45" height="22.85" transform="translate(409.17 808.4) rotate(-56.38)"/><path class="cls-1" d="M890.91,115.53h-20v-40h20Zm-14.55-5.46h9.08V81h-9.08Z"/><path class="cls-1" d="M922,115.53H902V55.41h20Zm-14.54-5.46h9.09V60.86h-9.09Z"/><path class="cls-1" d="M953.16,115.53h-20V30.14h20Zm-14.53-5.46h9.08V35.56h-9.08Z"/><path class="cls-1" d="M984.3,115.53h-20V49.08h20Zm-14.54-5.46h9.08V54.54h-9.08Z"/></g></g><g id="레이어_2-2" data-name="레이어 2"><g id="레이어_1-2-2" data-name="레이어 1-2"><path class="cls-1" d="M986.28,261.21H882.67a9.67,9.67,0,0,1-9.78-9.54V173.45a2.94,2.94,0,0,1,3-2.9h0a3,3,0,0,1,3,2.88v78.22a3.78,3.78,0,0,0,3.76,3.8h97.67V179.59a3,3,0,0,1,6,0Z"/><path class="cls-1" d="M983.3,182.45H882.14a9,9,0,1,1,0-18H983.3v5.81H882.14a3.21,3.21,0,0,0,0,6.42H983.3Z"/><path class="cls-1" d="M986.28,228H963.89a10.51,10.51,0,0,1-.92-21h23.32Zm-22.39-15.21a4.7,4.7,0,0,0-.44,9.39h16.88v-9.39Z"/><path class="cls-1" d="M932.82,233.73H915.4a7.35,7.35,0,0,1-7.45-7.27h0v-2.32h6v2.32a1.46,1.46,0,0,0,1.49,1.44h17.38a1.46,1.46,0,0,0,1.48-1.44h0v-4.66a1.47,1.47,0,0,0-1.48-1.44H915.4a7.36,7.36,0,0,1-7.45-7.26v-4.64a7.36,7.36,0,0,1,7.45-7.25h17.42a7.37,7.37,0,0,1,7.44,7.25v2.3h-6v-2.3a1.47,1.47,0,0,0-1.48-1.44H915.4a1.47,1.47,0,0,0-1.51,1.43h0v4.69a1.46,1.46,0,0,0,1.48,1.44h17.45a7.37,7.37,0,0,1,7.44,7.26v4.61a7.36,7.36,0,0,1-7.44,7.28Z"/><rect class="cls-1" x="921.13" y="196.3" width="5.96" height="7.76"/><rect class="cls-1" x="921.13" y="230.83" width="5.96" height="7.76"/></g></g></svg>