<svg xmlns="http://www.w3.org/2000/svg" viewBox="0 0 1860.92 1661"><defs><style>.cls-1{fill:#ffd200;}</style></defs><g id="레이어_2" data-name="레이어 2"><g id="_迹_1" data-name="卵迹_1"><path class="cls-1" d="M1835.89,1382.75l-744.78-1290a185.27,185.27,0,0,0-321.3,0L25,1382.75A185.27,185.27,0,0,0,185.68,1661H1675.24a185.27,185.27,0,0,0,160.65-278.25Zm-113.45,120c-4.73,8.19-18.8,27.25-47.2,27.25H185.68c-28.4,0-42.47-19.06-47.2-27.25s-14.2-29.91,0-54.5l744.78-1290C897.46,133.66,921,131,930.46,131s33,2.66,47.2,27.25l744.78,1290C1736.64,1472.84,1727.17,1494.55,1722.44,1502.75Z"/><path class="cls-1" d="M930.46,1153.5h0a62.93,62.93,0,0,1-62.84-59.41L836.54,540.84a94.06,94.06,0,0,1,93.92-99.34h0a94.07,94.07,0,0,1,93.92,99.34L993.3,1094.09A62.94,62.94,0,0,1,930.46,1153.5Z"/><circle class="cls-1" cx="930.46" cy="1324" r="94.5"/></g></g></svg>